<svg xmlns="http://www.w3.org/2000/svg" xmlns:xlink="http://www.w3.org/1999/xlink" width="500" zoomAndPan="magnify"
     viewBox="0 0 375 374.999991" height="500" preserveAspectRatio="xMidYMid meet" version="1.0">
    <defs>
        <g/>
        <clipPath id="d5a81ea167">
            <path d="M 162 119 L 268 119 L 268 224.785156 L 162 224.785156 Z M 162 119 " clip-rule="nonzero"/>
        </clipPath>
        <clipPath id="dc764333c6">
            <path d="M 251.480469 119.136719 L 179.40625 119.136719 C 178.867188 119.136719 178.328125 119.164062 177.792969 119.21875 C 177.253906 119.269531 176.722656 119.351562 176.191406 119.457031 C 175.664062 119.5625 175.140625 119.691406 174.625 119.847656 C 174.109375 120.007812 173.601562 120.1875 173.101562 120.394531 C 172.605469 120.601562 172.117188 120.832031 171.640625 121.085938 C 171.167969 121.339844 170.703125 121.617188 170.253906 121.917969 C 169.808594 122.21875 169.375 122.539062 168.957031 122.882812 C 168.539062 123.222656 168.140625 123.585938 167.757812 123.96875 C 167.378906 124.347656 167.015625 124.746094 166.671875 125.164062 C 166.332031 125.582031 166.011719 126.015625 165.710938 126.464844 C 165.410156 126.910156 165.132812 127.375 164.878906 127.847656 C 164.625 128.324219 164.394531 128.8125 164.1875 129.3125 C 163.980469 129.808594 163.800781 130.316406 163.640625 130.832031 C 163.484375 131.347656 163.355469 131.871094 163.25 132.402344 C 163.144531 132.929688 163.0625 133.460938 163.011719 134 C 162.957031 134.535156 162.929688 135.074219 162.929688 135.613281 L 162.929688 187.097656 C 162.929688 187.636719 162.957031 188.175781 163.011719 188.710938 C 163.0625 189.25 163.144531 189.78125 163.25 190.308594 C 163.355469 190.839844 163.488281 191.363281 163.644531 191.878906 C 163.800781 192.394531 163.980469 192.902344 164.1875 193.398438 C 164.394531 193.898438 164.625 194.386719 164.882812 194.859375 C 165.136719 195.335938 165.414062 195.796875 165.710938 196.246094 C 166.011719 196.695312 166.332031 197.128906 166.675781 197.546875 C 167.019531 197.960938 167.378906 198.359375 167.761719 198.742188 C 168.144531 199.125 168.542969 199.484375 168.960938 199.828125 C 169.375 200.171875 169.808594 200.492188 170.257812 200.792969 C 170.707031 201.089844 171.167969 201.367188 171.644531 201.621094 C 172.117188 201.878906 172.605469 202.109375 173.105469 202.316406 C 173.601562 202.523438 174.109375 202.703125 174.625 202.859375 C 175.140625 203.015625 175.664062 203.148438 176.195312 203.253906 C 176.722656 203.359375 177.253906 203.441406 177.792969 203.492188 C 178.328125 203.546875 178.867188 203.574219 179.40625 203.574219 L 211.667969 203.574219 L 237.476562 222.929688 C 237.933594 223.273438 238.433594 223.550781 238.96875 223.753906 C 239.503906 223.960938 240.054688 224.089844 240.628906 224.140625 C 241.199219 224.191406 241.765625 224.164062 242.332031 224.058594 C 242.894531 223.953125 243.433594 223.769531 243.945312 223.511719 C 244.457031 223.257812 244.925781 222.933594 245.351562 222.546875 C 245.773438 222.160156 246.136719 221.722656 246.4375 221.234375 C 246.738281 220.746094 246.96875 220.226562 247.125 219.675781 C 247.28125 219.125 247.359375 218.5625 247.359375 217.988281 L 247.359375 203.574219 L 251.476562 203.574219 C 252.015625 203.574219 252.554688 203.546875 253.089844 203.492188 C 253.628906 203.441406 254.160156 203.359375 254.6875 203.253906 C 255.21875 203.148438 255.742188 203.019531 256.257812 202.863281 C 256.773438 202.707031 257.28125 202.523438 257.78125 202.316406 C 258.277344 202.109375 258.765625 201.878906 259.242188 201.625 C 259.71875 201.371094 260.179688 201.09375 260.628906 200.792969 C 261.078125 200.492188 261.507812 200.171875 261.925781 199.832031 C 262.34375 199.488281 262.742188 199.125 263.125 198.746094 C 263.507812 198.363281 263.867188 197.964844 264.210938 197.546875 C 264.554688 197.128906 264.875 196.699219 265.175781 196.25 C 265.476562 195.800781 265.753906 195.339844 266.007812 194.863281 C 266.261719 194.386719 266.492188 193.898438 266.699219 193.402344 C 266.90625 192.902344 267.085938 192.394531 267.246094 191.878906 C 267.402344 191.363281 267.53125 190.839844 267.640625 190.3125 C 267.746094 189.78125 267.824219 189.25 267.878906 188.710938 C 267.929688 188.175781 267.957031 187.636719 267.957031 187.097656 L 267.957031 135.613281 C 267.957031 135.074219 267.929688 134.535156 267.878906 134 C 267.824219 133.460938 267.746094 132.929688 267.640625 132.402344 C 267.535156 131.871094 267.402344 131.347656 267.246094 130.832031 C 267.089844 130.316406 266.90625 129.808594 266.699219 129.3125 C 266.496094 128.8125 266.265625 128.324219 266.007812 127.847656 C 265.753906 127.375 265.476562 126.910156 265.179688 126.464844 C 264.878906 126.015625 264.558594 125.582031 264.214844 125.164062 C 263.871094 124.746094 263.511719 124.347656 263.128906 123.96875 C 262.746094 123.585938 262.347656 123.222656 261.929688 122.882812 C 261.515625 122.539062 261.082031 122.21875 260.632812 121.917969 C 260.183594 121.617188 259.722656 121.339844 259.246094 121.085938 C 258.769531 120.832031 258.285156 120.601562 257.785156 120.394531 C 257.285156 120.1875 256.78125 120.007812 256.261719 119.847656 C 255.746094 119.691406 255.222656 119.5625 254.695312 119.457031 C 254.167969 119.351562 253.632812 119.269531 253.097656 119.21875 C 252.558594 119.164062 252.019531 119.136719 251.480469 119.136719 Z M 251.480469 119.136719 "
                  clip-rule="nonzero"/>
        </clipPath>
        <linearGradient x1="9.999999" gradientTransform="matrix(6.17816, 0, 0, 6.17816, 101.148295, 57.355589)"
                        y1="18.5" x2="26.999998" gradientUnits="userSpaceOnUse" y2="18.5" id="eb23b7bb10">
            <stop stop-opacity="1" stop-color="rgb(14.898682%, 67.098999%, 35.299683%)" offset="0"/>
            <stop stop-opacity="1" stop-color="rgb(15.029907%, 67.184448%, 35.30426%)" offset="0.0078125"/>
            <stop stop-opacity="1" stop-color="rgb(15.293884%, 67.355347%, 35.313416%)" offset="0.015625"/>
            <stop stop-opacity="1" stop-color="rgb(15.556335%, 67.526245%, 35.322571%)" offset="0.0234375"/>
            <stop stop-opacity="1" stop-color="rgb(15.820312%, 67.698669%, 35.331726%)" offset="0.03125"/>
            <stop stop-opacity="1" stop-color="rgb(16.08429%, 67.869568%, 35.340881%)" offset="0.0390625"/>
            <stop stop-opacity="1" stop-color="rgb(16.346741%, 68.040466%, 35.350037%)" offset="0.046875"/>
            <stop stop-opacity="1" stop-color="rgb(16.610718%, 68.211365%, 35.360718%)" offset="0.0546875"/>
            <stop stop-opacity="1" stop-color="rgb(16.873169%, 68.382263%, 35.369873%)" offset="0.0625"/>
            <stop stop-opacity="1" stop-color="rgb(17.137146%, 68.553162%, 35.379028%)" offset="0.0703125"/>
            <stop stop-opacity="1" stop-color="rgb(17.399597%, 68.72406%, 35.388184%)" offset="0.078125"/>
            <stop stop-opacity="1" stop-color="rgb(17.663574%, 68.894958%, 35.397339%)" offset="0.0859375"/>
            <stop stop-opacity="1" stop-color="rgb(17.926025%, 69.067383%, 35.406494%)" offset="0.09375"/>
            <stop stop-opacity="1" stop-color="rgb(18.190002%, 69.238281%, 35.415649%)" offset="0.101562"/>
            <stop stop-opacity="1" stop-color="rgb(18.452454%, 69.40918%, 35.426331%)" offset="0.109375"/>
            <stop stop-opacity="1" stop-color="rgb(18.716431%, 69.580078%, 35.435486%)" offset="0.117188"/>
            <stop stop-opacity="1" stop-color="rgb(18.980408%, 69.750977%, 35.444641%)" offset="0.125"/>
            <stop stop-opacity="1" stop-color="rgb(19.242859%, 69.921875%, 35.453796%)" offset="0.132812"/>
            <stop stop-opacity="1" stop-color="rgb(19.506836%, 70.092773%, 35.462952%)" offset="0.140625"/>
            <stop stop-opacity="1" stop-color="rgb(19.769287%, 70.263672%, 35.472107%)" offset="0.148438"/>
            <stop stop-opacity="1" stop-color="rgb(20.033264%, 70.436096%, 35.481262%)" offset="0.15625"/>
            <stop stop-opacity="1" stop-color="rgb(20.295715%, 70.606995%, 35.491943%)" offset="0.164062"/>
            <stop stop-opacity="1" stop-color="rgb(20.559692%, 70.777893%, 35.501099%)" offset="0.171875"/>
            <stop stop-opacity="1" stop-color="rgb(20.822144%, 70.948792%, 35.510254%)" offset="0.179688"/>
            <stop stop-opacity="1" stop-color="rgb(21.086121%, 71.11969%, 35.519409%)" offset="0.1875"/>
            <stop stop-opacity="1" stop-color="rgb(21.348572%, 71.290588%, 35.528564%)" offset="0.195312"/>
            <stop stop-opacity="1" stop-color="rgb(21.612549%, 71.461487%, 35.53772%)" offset="0.203125"/>
            <stop stop-opacity="1" stop-color="rgb(21.876526%, 71.632385%, 35.546875%)" offset="0.210937"/>
            <stop stop-opacity="1" stop-color="rgb(22.138977%, 71.80481%, 35.557556%)" offset="0.21875"/>
            <stop stop-opacity="1" stop-color="rgb(22.402954%, 71.975708%, 35.566711%)" offset="0.226562"/>
            <stop stop-opacity="1" stop-color="rgb(22.665405%, 72.146606%, 35.575867%)" offset="0.234375"/>
            <stop stop-opacity="1" stop-color="rgb(22.929382%, 72.317505%, 35.585022%)" offset="0.242188"/>
            <stop stop-opacity="1" stop-color="rgb(23.191833%, 72.488403%, 35.594177%)" offset="0.25"/>
            <stop stop-opacity="1" stop-color="rgb(23.455811%, 72.659302%, 35.603333%)" offset="0.257812"/>
            <stop stop-opacity="1" stop-color="rgb(23.718262%, 72.8302%, 35.612488%)" offset="0.265625"/>
            <stop stop-opacity="1" stop-color="rgb(23.982239%, 73.002625%, 35.623169%)" offset="0.273438"/>
            <stop stop-opacity="1" stop-color="rgb(24.24469%, 73.173523%, 35.632324%)" offset="0.28125"/>
            <stop stop-opacity="1" stop-color="rgb(24.508667%, 73.344421%, 35.641479%)" offset="0.289063"/>
            <stop stop-opacity="1" stop-color="rgb(24.771118%, 73.51532%, 35.650635%)" offset="0.296875"/>
            <stop stop-opacity="1" stop-color="rgb(25.035095%, 73.686218%, 35.65979%)" offset="0.304688"/>
            <stop stop-opacity="1" stop-color="rgb(25.299072%, 73.857117%, 35.668945%)" offset="0.3125"/>
            <stop stop-opacity="1" stop-color="rgb(25.561523%, 74.028015%, 35.678101%)" offset="0.320313"/>
            <stop stop-opacity="1" stop-color="rgb(25.8255%, 74.198914%, 35.688782%)" offset="0.328125"/>
            <stop stop-opacity="1" stop-color="rgb(26.087952%, 74.371338%, 35.697937%)" offset="0.335938"/>
            <stop stop-opacity="1" stop-color="rgb(26.351929%, 74.542236%, 35.707092%)" offset="0.34375"/>
            <stop stop-opacity="1" stop-color="rgb(26.61438%, 74.713135%, 35.716248%)" offset="0.351563"/>
            <stop stop-opacity="1" stop-color="rgb(26.878357%, 74.884033%, 35.725403%)" offset="0.359375"/>
            <stop stop-opacity="1" stop-color="rgb(27.140808%, 75.054932%, 35.734558%)" offset="0.367188"/>
            <stop stop-opacity="1" stop-color="rgb(27.404785%, 75.22583%, 35.743713%)" offset="0.375"/>
            <stop stop-opacity="1" stop-color="rgb(27.667236%, 75.396729%, 35.754395%)" offset="0.382813"/>
            <stop stop-opacity="1" stop-color="rgb(27.931213%, 75.567627%, 35.76355%)" offset="0.390625"/>
            <stop stop-opacity="1" stop-color="rgb(28.19519%, 75.740051%, 35.772705%)" offset="0.398438"/>
            <stop stop-opacity="1" stop-color="rgb(28.457642%, 75.91095%, 35.78186%)" offset="0.40625"/>
            <stop stop-opacity="1" stop-color="rgb(28.721619%, 76.081848%, 35.791016%)" offset="0.414063"/>
            <stop stop-opacity="1" stop-color="rgb(28.98407%, 76.252747%, 35.800171%)" offset="0.421875"/>
            <stop stop-opacity="1" stop-color="rgb(29.248047%, 76.423645%, 35.809326%)" offset="0.429688"/>
            <stop stop-opacity="1" stop-color="rgb(29.510498%, 76.594543%, 35.820007%)" offset="0.4375"/>
            <stop stop-opacity="1" stop-color="rgb(29.774475%, 76.765442%, 35.829163%)" offset="0.445313"/>
            <stop stop-opacity="1" stop-color="rgb(30.036926%, 76.93634%, 35.838318%)" offset="0.453125"/>
            <stop stop-opacity="1" stop-color="rgb(30.300903%, 77.108765%, 35.847473%)" offset="0.460938"/>
            <stop stop-opacity="1" stop-color="rgb(30.563354%, 77.279663%, 35.856628%)" offset="0.46875"/>
            <stop stop-opacity="1" stop-color="rgb(30.827332%, 77.450562%, 35.865784%)" offset="0.476563"/>
            <stop stop-opacity="1" stop-color="rgb(31.091309%, 77.62146%, 35.874939%)" offset="0.484375"/>
            <stop stop-opacity="1" stop-color="rgb(31.35376%, 77.792358%, 35.88562%)" offset="0.492188"/>
            <stop stop-opacity="1" stop-color="rgb(31.617737%, 77.963257%, 35.894775%)" offset="0.5"/>
            <stop stop-opacity="1" stop-color="rgb(31.880188%, 78.134155%, 35.903931%)" offset="0.507812"/>
            <stop stop-opacity="1" stop-color="rgb(32.144165%, 78.305054%, 35.913086%)" offset="0.515625"/>
            <stop stop-opacity="1" stop-color="rgb(32.406616%, 78.477478%, 35.922241%)" offset="0.523437"/>
            <stop stop-opacity="1" stop-color="rgb(32.670593%, 78.648376%, 35.931396%)" offset="0.53125"/>
            <stop stop-opacity="1" stop-color="rgb(32.933044%, 78.819275%, 35.940552%)" offset="0.539063"/>
            <stop stop-opacity="1" stop-color="rgb(33.197021%, 78.990173%, 35.951233%)" offset="0.546875"/>
            <stop stop-opacity="1" stop-color="rgb(33.459473%, 79.161072%, 35.960388%)" offset="0.554688"/>
            <stop stop-opacity="1" stop-color="rgb(33.72345%, 79.33197%, 35.969543%)" offset="0.5625"/>
            <stop stop-opacity="1" stop-color="rgb(33.987427%, 79.502869%, 35.978699%)" offset="0.570312"/>
            <stop stop-opacity="1" stop-color="rgb(34.249878%, 79.673767%, 35.987854%)" offset="0.578125"/>
            <stop stop-opacity="1" stop-color="rgb(34.513855%, 79.846191%, 35.997009%)" offset="0.585937"/>
            <stop stop-opacity="1" stop-color="rgb(34.776306%, 80.01709%, 36.00769%)" offset="0.59375"/>
            <stop stop-opacity="1" stop-color="rgb(35.040283%, 80.187988%, 36.016846%)" offset="0.601563"/>
            <stop stop-opacity="1" stop-color="rgb(35.302734%, 80.358887%, 36.026001%)" offset="0.609375"/>
            <stop stop-opacity="1" stop-color="rgb(35.566711%, 80.529785%, 36.035156%)" offset="0.617188"/>
            <stop stop-opacity="1" stop-color="rgb(35.829163%, 80.700684%, 36.044312%)" offset="0.625"/>
            <stop stop-opacity="1" stop-color="rgb(36.09314%, 80.871582%, 36.053467%)" offset="0.632812"/>
            <stop stop-opacity="1" stop-color="rgb(36.355591%, 81.044006%, 36.062622%)" offset="0.640625"/>
            <stop stop-opacity="1" stop-color="rgb(36.619568%, 81.214905%, 36.073303%)" offset="0.648437"/>
            <stop stop-opacity="1" stop-color="rgb(36.883545%, 81.385803%, 36.082458%)" offset="0.65625"/>
            <stop stop-opacity="1" stop-color="rgb(37.145996%, 81.556702%, 36.091614%)" offset="0.664062"/>
            <stop stop-opacity="1" stop-color="rgb(37.409973%, 81.7276%, 36.100769%)" offset="0.671875"/>
            <stop stop-opacity="1" stop-color="rgb(37.672424%, 81.898499%, 36.109924%)" offset="0.679688"/>
            <stop stop-opacity="1" stop-color="rgb(37.936401%, 82.069397%, 36.11908%)" offset="0.6875"/>
            <stop stop-opacity="1" stop-color="rgb(38.198853%, 82.240295%, 36.128235%)" offset="0.695312"/>
            <stop stop-opacity="1" stop-color="rgb(38.46283%, 82.41272%, 36.138916%)" offset="0.703125"/>
            <stop stop-opacity="1" stop-color="rgb(38.725281%, 82.583618%, 36.148071%)" offset="0.710937"/>
            <stop stop-opacity="1" stop-color="rgb(38.989258%, 82.754517%, 36.157227%)" offset="0.71875"/>
            <stop stop-opacity="1" stop-color="rgb(39.251709%, 82.925415%, 36.166382%)" offset="0.726562"/>
            <stop stop-opacity="1" stop-color="rgb(39.515686%, 83.096313%, 36.175537%)" offset="0.734375"/>
            <stop stop-opacity="1" stop-color="rgb(39.778137%, 83.267212%, 36.184692%)" offset="0.742188"/>
            <stop stop-opacity="1" stop-color="rgb(40.042114%, 83.43811%, 36.193848%)" offset="0.75"/>
            <stop stop-opacity="1" stop-color="rgb(40.306091%, 83.609009%, 36.204529%)" offset="0.757812"/>
            <stop stop-opacity="1" stop-color="rgb(40.568542%, 83.781433%, 36.213684%)" offset="0.765625"/>
            <stop stop-opacity="1" stop-color="rgb(40.83252%, 83.952332%, 36.222839%)" offset="0.773437"/>
            <stop stop-opacity="1" stop-color="rgb(41.094971%, 84.12323%, 36.231995%)" offset="0.78125"/>
            <stop stop-opacity="1" stop-color="rgb(41.358948%, 84.294128%, 36.24115%)" offset="0.789062"/>
            <stop stop-opacity="1" stop-color="rgb(41.621399%, 84.465027%, 36.250305%)" offset="0.796875"/>
            <stop stop-opacity="1" stop-color="rgb(41.885376%, 84.635925%, 36.25946%)" offset="0.804688"/>
            <stop stop-opacity="1" stop-color="rgb(42.147827%, 84.806824%, 36.270142%)" offset="0.8125"/>
            <stop stop-opacity="1" stop-color="rgb(42.411804%, 84.977722%, 36.279297%)" offset="0.820312"/>
            <stop stop-opacity="1" stop-color="rgb(42.674255%, 85.150146%, 36.288452%)" offset="0.828125"/>
            <stop stop-opacity="1" stop-color="rgb(42.938232%, 85.321045%, 36.297607%)" offset="0.835937"/>
            <stop stop-opacity="1" stop-color="rgb(43.202209%, 85.491943%, 36.306763%)" offset="0.84375"/>
            <stop stop-opacity="1" stop-color="rgb(43.464661%, 85.662842%, 36.315918%)" offset="0.851562"/>
            <stop stop-opacity="1" stop-color="rgb(43.728638%, 85.83374%, 36.325073%)" offset="0.859375"/>
            <stop stop-opacity="1" stop-color="rgb(43.991089%, 86.004639%, 36.335754%)" offset="0.867188"/>
            <stop stop-opacity="1" stop-color="rgb(44.255066%, 86.175537%, 36.34491%)" offset="0.875"/>
            <stop stop-opacity="1" stop-color="rgb(44.517517%, 86.346436%, 36.354065%)" offset="0.882812"/>
            <stop stop-opacity="1" stop-color="rgb(44.781494%, 86.51886%, 36.36322%)" offset="0.890625"/>
            <stop stop-opacity="1" stop-color="rgb(45.043945%, 86.689758%, 36.372375%)" offset="0.898437"/>
            <stop stop-opacity="1" stop-color="rgb(45.307922%, 86.860657%, 36.381531%)" offset="0.90625"/>
            <stop stop-opacity="1" stop-color="rgb(45.570374%, 87.031555%, 36.390686%)" offset="0.914062"/>
            <stop stop-opacity="1" stop-color="rgb(45.834351%, 87.202454%, 36.401367%)" offset="0.921875"/>
            <stop stop-opacity="1" stop-color="rgb(46.098328%, 87.373352%, 36.410522%)" offset="0.929687"/>
            <stop stop-opacity="1" stop-color="rgb(46.360779%, 87.54425%, 36.419678%)" offset="0.9375"/>
            <stop stop-opacity="1" stop-color="rgb(46.624756%, 87.716675%, 36.428833%)" offset="0.945312"/>
            <stop stop-opacity="1" stop-color="rgb(46.887207%, 87.887573%, 36.437988%)" offset="0.953125"/>
            <stop stop-opacity="1" stop-color="rgb(47.151184%, 88.058472%, 36.447144%)" offset="0.960938"/>
            <stop stop-opacity="1" stop-color="rgb(47.413635%, 88.22937%, 36.456299%)" offset="0.96875"/>
            <stop stop-opacity="1" stop-color="rgb(47.677612%, 88.400269%, 36.46698%)" offset="0.976562"/>
            <stop stop-opacity="1" stop-color="rgb(47.940063%, 88.571167%, 36.476135%)" offset="0.984375"/>
            <stop stop-opacity="1" stop-color="rgb(48.204041%, 88.742065%, 36.485291%)" offset="0.992187"/>
            <stop stop-opacity="1" stop-color="rgb(48.466492%, 88.912964%, 36.494446%)" offset="1"/>
        </linearGradient>
        <clipPath id="f75328ec61">
            <path d="M 107.015625 63.535156 L 231 63.535156 L 231 188 L 107.015625 188 Z M 107.015625 63.535156 "
                  clip-rule="nonzero"/>
        </clipPath>
        <clipPath id="21068c17e6">
            <path d="M 212.355469 63.535156 L 125.859375 63.535156 C 125.253906 63.535156 124.648438 63.5625 124.042969 63.621094 C 123.441406 63.683594 122.839844 63.769531 122.246094 63.890625 C 121.648438 64.007812 121.0625 64.15625 120.480469 64.332031 C 119.898438 64.507812 119.328125 64.710938 118.769531 64.945312 C 118.207031 65.175781 117.660156 65.4375 117.125 65.722656 C 116.589844 66.007812 116.070312 66.320312 115.5625 66.65625 C 115.058594 66.996094 114.570312 67.355469 114.101562 67.742188 C 113.632812 68.125 113.183594 68.53125 112.753906 68.960938 C 112.324219 69.390625 111.917969 69.839844 111.535156 70.308594 C 111.148438 70.78125 110.789062 71.265625 110.449219 71.769531 C 110.113281 72.277344 109.800781 72.796875 109.515625 73.332031 C 109.230469 73.867188 108.96875 74.414062 108.738281 74.976562 C 108.503906 75.535156 108.300781 76.105469 108.125 76.6875 C 107.949219 77.269531 107.800781 77.855469 107.683594 78.453125 C 107.5625 79.046875 107.476562 79.648438 107.414062 80.25 C 107.355469 80.855469 107.328125 81.460938 107.328125 82.066406 L 107.328125 143.851562 C 107.328125 144.457031 107.355469 145.0625 107.414062 145.667969 C 107.476562 146.269531 107.5625 146.871094 107.683594 147.464844 C 107.800781 148.0625 107.949219 148.648438 108.125 149.230469 C 108.300781 149.8125 108.503906 150.382812 108.738281 150.941406 C 108.96875 151.503906 109.230469 152.050781 109.515625 152.585938 C 109.800781 153.121094 110.113281 153.640625 110.449219 154.148438 C 110.789062 154.652344 111.148438 155.140625 111.535156 155.609375 C 111.917969 156.078125 112.324219 156.527344 112.753906 156.957031 C 113.183594 157.386719 113.632812 157.792969 114.101562 158.175781 C 114.570312 158.5625 115.058594 158.921875 115.5625 159.261719 C 116.070312 159.597656 116.589844 159.910156 117.125 160.195312 C 117.660156 160.480469 118.207031 160.742188 118.769531 160.972656 C 119.328125 161.207031 119.898438 161.410156 120.480469 161.585938 C 121.0625 161.761719 121.648438 161.910156 122.246094 162.027344 C 122.839844 162.148438 123.441406 162.234375 124.042969 162.296875 C 124.648438 162.355469 125.253906 162.382812 125.859375 162.382812 L 132.039062 162.382812 L 132.039062 180.917969 C 132.039062 181.492188 132.117188 182.054688 132.273438 182.605469 C 132.429688 183.160156 132.660156 183.679688 132.960938 184.167969 C 133.261719 184.65625 133.625 185.09375 134.050781 185.480469 C 134.472656 185.867188 134.941406 186.1875 135.453125 186.445312 C 135.96875 186.703125 136.503906 186.882812 137.070312 186.988281 C 137.632812 187.097656 138.199219 187.125 138.773438 187.070312 C 139.34375 187.019531 139.898438 186.890625 140.433594 186.6875 C 140.96875 186.480469 141.464844 186.207031 141.925781 185.859375 L 172.816406 162.675781 L 212.355469 162.382812 C 212.960938 162.382812 213.566406 162.355469 214.171875 162.296875 C 214.777344 162.234375 215.375 162.148438 215.972656 162.027344 C 216.566406 161.910156 217.15625 161.761719 217.734375 161.585938 C 218.316406 161.410156 218.886719 161.207031 219.449219 160.972656 C 220.007812 160.742188 220.558594 160.480469 221.09375 160.195312 C 221.628906 159.910156 222.148438 159.597656 222.652344 159.261719 C 223.15625 158.921875 223.644531 158.5625 224.113281 158.175781 C 224.582031 157.792969 225.03125 157.386719 225.460938 156.957031 C 225.890625 156.527344 226.296875 156.078125 226.683594 155.609375 C 227.066406 155.140625 227.429688 154.652344 227.765625 154.148438 C 228.101562 153.640625 228.414062 153.121094 228.699219 152.585938 C 228.988281 152.050781 229.246094 151.503906 229.480469 150.941406 C 229.710938 150.382812 229.914062 149.8125 230.089844 149.230469 C 230.269531 148.648438 230.414062 148.0625 230.535156 147.464844 C 230.652344 146.871094 230.742188 146.269531 230.800781 145.667969 C 230.859375 145.0625 230.890625 144.457031 230.890625 143.851562 L 230.890625 82.066406 C 230.890625 81.460938 230.859375 80.855469 230.800781 80.25 C 230.742188 79.648438 230.652344 79.046875 230.535156 78.453125 C 230.414062 77.855469 230.269531 77.269531 230.089844 76.6875 C 229.914062 76.105469 229.710938 75.535156 229.480469 74.976562 C 229.246094 74.414062 228.988281 73.867188 228.699219 73.332031 C 228.414062 72.796875 228.101562 72.277344 227.765625 71.769531 C 227.429688 71.265625 227.066406 70.78125 226.683594 70.308594 C 226.296875 69.839844 225.890625 69.390625 225.460938 68.960938 C 225.03125 68.53125 224.582031 68.125 224.113281 67.742188 C 223.644531 67.355469 223.15625 66.996094 222.652344 66.65625 C 222.148438 66.320312 221.628906 66.007812 221.09375 65.722656 C 220.558594 65.4375 220.007812 65.175781 219.449219 64.945312 C 218.886719 64.710938 218.316406 64.507812 217.734375 64.332031 C 217.15625 64.15625 216.566406 64.007812 215.972656 63.890625 C 215.375 63.769531 214.777344 63.683594 214.171875 63.621094 C 213.566406 63.5625 212.960938 63.535156 212.355469 63.535156 Z M 212.355469 63.535156 "
                  clip-rule="nonzero"/>
        </clipPath>
        <linearGradient x1="1" gradientTransform="matrix(6.17816, 0, 0, 6.17816, 101.148295, 57.355589)" y1="11"
                        x2="21.000001" gradientUnits="userSpaceOnUse" y2="11" id="f279dc54f5">
            <stop stop-opacity="1" stop-color="rgb(14.898682%, 67.098999%, 35.299683%)" offset="0"/>
            <stop stop-opacity="1" stop-color="rgb(15.029907%, 67.184448%, 35.30426%)" offset="0.0078125"/>
            <stop stop-opacity="1" stop-color="rgb(15.293884%, 67.355347%, 35.313416%)" offset="0.015625"/>
            <stop stop-opacity="1" stop-color="rgb(15.556335%, 67.526245%, 35.322571%)" offset="0.0234375"/>
            <stop stop-opacity="1" stop-color="rgb(15.820312%, 67.698669%, 35.331726%)" offset="0.03125"/>
            <stop stop-opacity="1" stop-color="rgb(16.08429%, 67.869568%, 35.340881%)" offset="0.0390625"/>
            <stop stop-opacity="1" stop-color="rgb(16.346741%, 68.040466%, 35.350037%)" offset="0.046875"/>
            <stop stop-opacity="1" stop-color="rgb(16.610718%, 68.211365%, 35.360718%)" offset="0.0546875"/>
            <stop stop-opacity="1" stop-color="rgb(16.873169%, 68.382263%, 35.369873%)" offset="0.0625"/>
            <stop stop-opacity="1" stop-color="rgb(17.137146%, 68.553162%, 35.379028%)" offset="0.0703125"/>
            <stop stop-opacity="1" stop-color="rgb(17.399597%, 68.72406%, 35.388184%)" offset="0.078125"/>
            <stop stop-opacity="1" stop-color="rgb(17.663574%, 68.894958%, 35.397339%)" offset="0.0859375"/>
            <stop stop-opacity="1" stop-color="rgb(17.926025%, 69.067383%, 35.406494%)" offset="0.09375"/>
            <stop stop-opacity="1" stop-color="rgb(18.190002%, 69.238281%, 35.415649%)" offset="0.101562"/>
            <stop stop-opacity="1" stop-color="rgb(18.452454%, 69.40918%, 35.426331%)" offset="0.109375"/>
            <stop stop-opacity="1" stop-color="rgb(18.716431%, 69.580078%, 35.435486%)" offset="0.117188"/>
            <stop stop-opacity="1" stop-color="rgb(18.980408%, 69.750977%, 35.444641%)" offset="0.125"/>
            <stop stop-opacity="1" stop-color="rgb(19.242859%, 69.921875%, 35.453796%)" offset="0.132813"/>
            <stop stop-opacity="1" stop-color="rgb(19.506836%, 70.092773%, 35.462952%)" offset="0.140625"/>
            <stop stop-opacity="1" stop-color="rgb(19.769287%, 70.263672%, 35.472107%)" offset="0.148438"/>
            <stop stop-opacity="1" stop-color="rgb(20.033264%, 70.436096%, 35.481262%)" offset="0.15625"/>
            <stop stop-opacity="1" stop-color="rgb(20.295715%, 70.606995%, 35.491943%)" offset="0.164063"/>
            <stop stop-opacity="1" stop-color="rgb(20.559692%, 70.777893%, 35.501099%)" offset="0.171875"/>
            <stop stop-opacity="1" stop-color="rgb(20.822144%, 70.948792%, 35.510254%)" offset="0.179688"/>
            <stop stop-opacity="1" stop-color="rgb(21.086121%, 71.11969%, 35.519409%)" offset="0.1875"/>
            <stop stop-opacity="1" stop-color="rgb(21.348572%, 71.290588%, 35.528564%)" offset="0.195313"/>
            <stop stop-opacity="1" stop-color="rgb(21.612549%, 71.461487%, 35.53772%)" offset="0.203125"/>
            <stop stop-opacity="1" stop-color="rgb(21.876526%, 71.632385%, 35.546875%)" offset="0.210938"/>
            <stop stop-opacity="1" stop-color="rgb(22.138977%, 71.80481%, 35.557556%)" offset="0.21875"/>
            <stop stop-opacity="1" stop-color="rgb(22.402954%, 71.975708%, 35.566711%)" offset="0.226563"/>
            <stop stop-opacity="1" stop-color="rgb(22.665405%, 72.146606%, 35.575867%)" offset="0.234375"/>
            <stop stop-opacity="1" stop-color="rgb(22.929382%, 72.317505%, 35.585022%)" offset="0.242188"/>
            <stop stop-opacity="1" stop-color="rgb(23.191833%, 72.488403%, 35.594177%)" offset="0.25"/>
            <stop stop-opacity="1" stop-color="rgb(23.455811%, 72.659302%, 35.603333%)" offset="0.257812"/>
            <stop stop-opacity="1" stop-color="rgb(23.718262%, 72.8302%, 35.612488%)" offset="0.265625"/>
            <stop stop-opacity="1" stop-color="rgb(23.982239%, 73.002625%, 35.623169%)" offset="0.273438"/>
            <stop stop-opacity="1" stop-color="rgb(24.24469%, 73.173523%, 35.632324%)" offset="0.28125"/>
            <stop stop-opacity="1" stop-color="rgb(24.508667%, 73.344421%, 35.641479%)" offset="0.289063"/>
            <stop stop-opacity="1" stop-color="rgb(24.771118%, 73.51532%, 35.650635%)" offset="0.296875"/>
            <stop stop-opacity="1" stop-color="rgb(25.035095%, 73.686218%, 35.65979%)" offset="0.304688"/>
            <stop stop-opacity="1" stop-color="rgb(25.299072%, 73.857117%, 35.668945%)" offset="0.3125"/>
            <stop stop-opacity="1" stop-color="rgb(25.561523%, 74.028015%, 35.678101%)" offset="0.320313"/>
            <stop stop-opacity="1" stop-color="rgb(25.8255%, 74.198914%, 35.688782%)" offset="0.328125"/>
            <stop stop-opacity="1" stop-color="rgb(26.087952%, 74.371338%, 35.697937%)" offset="0.335938"/>
            <stop stop-opacity="1" stop-color="rgb(26.351929%, 74.542236%, 35.707092%)" offset="0.34375"/>
            <stop stop-opacity="1" stop-color="rgb(26.61438%, 74.713135%, 35.716248%)" offset="0.351563"/>
            <stop stop-opacity="1" stop-color="rgb(26.878357%, 74.884033%, 35.725403%)" offset="0.359375"/>
            <stop stop-opacity="1" stop-color="rgb(27.140808%, 75.054932%, 35.734558%)" offset="0.367188"/>
            <stop stop-opacity="1" stop-color="rgb(27.404785%, 75.22583%, 35.743713%)" offset="0.375"/>
            <stop stop-opacity="1" stop-color="rgb(27.667236%, 75.396729%, 35.754395%)" offset="0.382813"/>
            <stop stop-opacity="1" stop-color="rgb(27.931213%, 75.567627%, 35.76355%)" offset="0.390625"/>
            <stop stop-opacity="1" stop-color="rgb(28.19519%, 75.740051%, 35.772705%)" offset="0.398438"/>
            <stop stop-opacity="1" stop-color="rgb(28.457642%, 75.91095%, 35.78186%)" offset="0.40625"/>
            <stop stop-opacity="1" stop-color="rgb(28.721619%, 76.081848%, 35.791016%)" offset="0.414063"/>
            <stop stop-opacity="1" stop-color="rgb(28.98407%, 76.252747%, 35.800171%)" offset="0.421875"/>
            <stop stop-opacity="1" stop-color="rgb(29.248047%, 76.423645%, 35.809326%)" offset="0.429688"/>
            <stop stop-opacity="1" stop-color="rgb(29.510498%, 76.594543%, 35.820007%)" offset="0.4375"/>
            <stop stop-opacity="1" stop-color="rgb(29.774475%, 76.765442%, 35.829163%)" offset="0.445313"/>
            <stop stop-opacity="1" stop-color="rgb(30.036926%, 76.93634%, 35.838318%)" offset="0.453125"/>
            <stop stop-opacity="1" stop-color="rgb(30.300903%, 77.108765%, 35.847473%)" offset="0.460938"/>
            <stop stop-opacity="1" stop-color="rgb(30.563354%, 77.279663%, 35.856628%)" offset="0.46875"/>
            <stop stop-opacity="1" stop-color="rgb(30.827332%, 77.450562%, 35.865784%)" offset="0.476563"/>
            <stop stop-opacity="1" stop-color="rgb(31.091309%, 77.62146%, 35.874939%)" offset="0.484375"/>
            <stop stop-opacity="1" stop-color="rgb(31.35376%, 77.792358%, 35.88562%)" offset="0.492188"/>
            <stop stop-opacity="1" stop-color="rgb(31.617737%, 77.963257%, 35.894775%)" offset="0.5"/>
            <stop stop-opacity="1" stop-color="rgb(31.880188%, 78.134155%, 35.903931%)" offset="0.507812"/>
            <stop stop-opacity="1" stop-color="rgb(32.144165%, 78.305054%, 35.913086%)" offset="0.515625"/>
            <stop stop-opacity="1" stop-color="rgb(32.406616%, 78.477478%, 35.922241%)" offset="0.523438"/>
            <stop stop-opacity="1" stop-color="rgb(32.670593%, 78.648376%, 35.931396%)" offset="0.53125"/>
            <stop stop-opacity="1" stop-color="rgb(32.933044%, 78.819275%, 35.942078%)" offset="0.539062"/>
            <stop stop-opacity="1" stop-color="rgb(33.197021%, 78.990173%, 35.951233%)" offset="0.546875"/>
            <stop stop-opacity="1" stop-color="rgb(33.459473%, 79.161072%, 35.960388%)" offset="0.554688"/>
            <stop stop-opacity="1" stop-color="rgb(33.72345%, 79.33197%, 35.969543%)" offset="0.5625"/>
            <stop stop-opacity="1" stop-color="rgb(33.987427%, 79.502869%, 35.978699%)" offset="0.570313"/>
            <stop stop-opacity="1" stop-color="rgb(34.249878%, 79.675293%, 35.987854%)" offset="0.578125"/>
            <stop stop-opacity="1" stop-color="rgb(34.513855%, 79.846191%, 35.997009%)" offset="0.585938"/>
            <stop stop-opacity="1" stop-color="rgb(34.776306%, 80.01709%, 36.00769%)" offset="0.59375"/>
            <stop stop-opacity="1" stop-color="rgb(35.040283%, 80.187988%, 36.016846%)" offset="0.601562"/>
            <stop stop-opacity="1" stop-color="rgb(35.302734%, 80.358887%, 36.026001%)" offset="0.609375"/>
            <stop stop-opacity="1" stop-color="rgb(35.566711%, 80.529785%, 36.035156%)" offset="0.617188"/>
            <stop stop-opacity="1" stop-color="rgb(35.829163%, 80.700684%, 36.044312%)" offset="0.625"/>
            <stop stop-opacity="1" stop-color="rgb(36.09314%, 80.871582%, 36.053467%)" offset="0.632812"/>
            <stop stop-opacity="1" stop-color="rgb(36.355591%, 81.044006%, 36.062622%)" offset="0.640625"/>
            <stop stop-opacity="1" stop-color="rgb(36.619568%, 81.214905%, 36.073303%)" offset="0.648437"/>
            <stop stop-opacity="1" stop-color="rgb(36.883545%, 81.385803%, 36.082458%)" offset="0.65625"/>
            <stop stop-opacity="1" stop-color="rgb(37.145996%, 81.556702%, 36.091614%)" offset="0.664063"/>
            <stop stop-opacity="1" stop-color="rgb(37.409973%, 81.7276%, 36.100769%)" offset="0.671875"/>
            <stop stop-opacity="1" stop-color="rgb(37.672424%, 81.898499%, 36.109924%)" offset="0.679688"/>
            <stop stop-opacity="1" stop-color="rgb(37.936401%, 82.069397%, 36.11908%)" offset="0.6875"/>
            <stop stop-opacity="1" stop-color="rgb(38.198853%, 82.240295%, 36.128235%)" offset="0.695312"/>
            <stop stop-opacity="1" stop-color="rgb(38.46283%, 82.41272%, 36.138916%)" offset="0.703125"/>
            <stop stop-opacity="1" stop-color="rgb(38.725281%, 82.583618%, 36.148071%)" offset="0.710938"/>
            <stop stop-opacity="1" stop-color="rgb(38.989258%, 82.754517%, 36.157227%)" offset="0.71875"/>
            <stop stop-opacity="1" stop-color="rgb(39.251709%, 82.925415%, 36.166382%)" offset="0.726562"/>
            <stop stop-opacity="1" stop-color="rgb(39.515686%, 83.096313%, 36.175537%)" offset="0.734375"/>
            <stop stop-opacity="1" stop-color="rgb(39.779663%, 83.267212%, 36.184692%)" offset="0.742187"/>
            <stop stop-opacity="1" stop-color="rgb(40.042114%, 83.43811%, 36.193848%)" offset="0.75"/>
            <stop stop-opacity="1" stop-color="rgb(40.306091%, 83.609009%, 36.204529%)" offset="0.757813"/>
            <stop stop-opacity="1" stop-color="rgb(40.568542%, 83.781433%, 36.213684%)" offset="0.765625"/>
            <stop stop-opacity="1" stop-color="rgb(40.83252%, 83.952332%, 36.222839%)" offset="0.773438"/>
            <stop stop-opacity="1" stop-color="rgb(41.094971%, 84.12323%, 36.231995%)" offset="0.78125"/>
            <stop stop-opacity="1" stop-color="rgb(41.358948%, 84.294128%, 36.24115%)" offset="0.789062"/>
            <stop stop-opacity="1" stop-color="rgb(41.621399%, 84.465027%, 36.250305%)" offset="0.796875"/>
            <stop stop-opacity="1" stop-color="rgb(41.885376%, 84.635925%, 36.25946%)" offset="0.804688"/>
            <stop stop-opacity="1" stop-color="rgb(42.147827%, 84.806824%, 36.270142%)" offset="0.8125"/>
            <stop stop-opacity="1" stop-color="rgb(42.411804%, 84.977722%, 36.279297%)" offset="0.820312"/>
            <stop stop-opacity="1" stop-color="rgb(42.674255%, 85.150146%, 36.288452%)" offset="0.828125"/>
            <stop stop-opacity="1" stop-color="rgb(42.938232%, 85.321045%, 36.297607%)" offset="0.835937"/>
            <stop stop-opacity="1" stop-color="rgb(43.202209%, 85.491943%, 36.306763%)" offset="0.84375"/>
            <stop stop-opacity="1" stop-color="rgb(43.464661%, 85.662842%, 36.315918%)" offset="0.851563"/>
            <stop stop-opacity="1" stop-color="rgb(43.728638%, 85.83374%, 36.325073%)" offset="0.859375"/>
            <stop stop-opacity="1" stop-color="rgb(43.991089%, 86.004639%, 36.335754%)" offset="0.867188"/>
            <stop stop-opacity="1" stop-color="rgb(44.255066%, 86.175537%, 36.34491%)" offset="0.875"/>
            <stop stop-opacity="1" stop-color="rgb(44.517517%, 86.346436%, 36.354065%)" offset="0.882812"/>
            <stop stop-opacity="1" stop-color="rgb(44.781494%, 86.51886%, 36.36322%)" offset="0.890625"/>
            <stop stop-opacity="1" stop-color="rgb(45.043945%, 86.689758%, 36.372375%)" offset="0.898438"/>
            <stop stop-opacity="1" stop-color="rgb(45.307922%, 86.860657%, 36.381531%)" offset="0.90625"/>
            <stop stop-opacity="1" stop-color="rgb(45.570374%, 87.031555%, 36.390686%)" offset="0.914062"/>
            <stop stop-opacity="1" stop-color="rgb(45.834351%, 87.202454%, 36.401367%)" offset="0.921875"/>
            <stop stop-opacity="1" stop-color="rgb(46.098328%, 87.373352%, 36.410522%)" offset="0.929687"/>
            <stop stop-opacity="1" stop-color="rgb(46.360779%, 87.54425%, 36.419678%)" offset="0.9375"/>
            <stop stop-opacity="1" stop-color="rgb(46.624756%, 87.716675%, 36.428833%)" offset="0.945312"/>
            <stop stop-opacity="1" stop-color="rgb(46.887207%, 87.887573%, 36.437988%)" offset="0.953125"/>
            <stop stop-opacity="1" stop-color="rgb(47.151184%, 88.058472%, 36.447144%)" offset="0.960938"/>
            <stop stop-opacity="1" stop-color="rgb(47.413635%, 88.22937%, 36.456299%)" offset="0.96875"/>
            <stop stop-opacity="1" stop-color="rgb(47.677612%, 88.400269%, 36.46698%)" offset="0.976562"/>
            <stop stop-opacity="1" stop-color="rgb(47.940063%, 88.571167%, 36.476135%)" offset="0.984375"/>
            <stop stop-opacity="1" stop-color="rgb(48.204041%, 88.742065%, 36.485291%)" offset="0.992188"/>
            <stop stop-opacity="1" stop-color="rgb(48.466492%, 88.912964%, 36.494446%)" offset="1"/>
        </linearGradient>
        <clipPath id="930571ccbd">
            <path d="M 138.21875 94.425781 L 200 94.425781 L 200 106.78125 L 138.21875 106.78125 Z M 138.21875 94.425781 "
                  clip-rule="nonzero"/>
        </clipPath>
        <linearGradient x1="14.730569" gradientTransform="matrix(6.17816, 0, 0, 6.17816, 101.148295, 57.355589)"
                        y1="4.267113" x2="7.269379" gradientUnits="userSpaceOnUse" y2="9.73282" id="fa9cd0aaca">
            <stop stop-opacity="1" stop-color="rgb(95.220947%, 100%, 96.678162%)" offset="0"/>
            <stop stop-opacity="1" stop-color="rgb(95.115662%, 100%, 96.604919%)" offset="0.015625"/>
            <stop stop-opacity="1" stop-color="rgb(94.90509%, 100%, 96.458435%)" offset="0.03125"/>
            <stop stop-opacity="1" stop-color="rgb(94.694519%, 100%, 96.311951%)" offset="0.046875"/>
            <stop stop-opacity="1" stop-color="rgb(94.483948%, 100%, 96.166992%)" offset="0.0625"/>
            <stop stop-opacity="1" stop-color="rgb(94.274902%, 100%, 96.020508%)" offset="0.078125"/>
            <stop stop-opacity="1" stop-color="rgb(94.064331%, 100%, 95.874023%)" offset="0.09375"/>
            <stop stop-opacity="1" stop-color="rgb(93.85376%, 100%, 95.727539%)" offset="0.109375"/>
            <stop stop-opacity="1" stop-color="rgb(93.643188%, 100%, 95.581055%)" offset="0.125"/>
            <stop stop-opacity="1" stop-color="rgb(93.432617%, 100%, 95.436096%)" offset="0.127788"/>
            <stop stop-opacity="1" stop-color="rgb(93.327332%, 100%, 95.362854%)" offset="0.140625"/>
            <stop stop-opacity="1" stop-color="rgb(93.222046%, 100%, 95.289612%)" offset="0.15625"/>
            <stop stop-opacity="1" stop-color="rgb(93.011475%, 100%, 95.143127%)" offset="0.171875"/>
            <stop stop-opacity="1" stop-color="rgb(92.802429%, 100%, 94.996643%)" offset="0.1875"/>
            <stop stop-opacity="1" stop-color="rgb(92.591858%, 100%, 94.850159%)" offset="0.203125"/>
            <stop stop-opacity="1" stop-color="rgb(92.381287%, 100%, 94.7052%)" offset="0.21875"/>
            <stop stop-opacity="1" stop-color="rgb(92.170715%, 100%, 94.558716%)" offset="0.234375"/>
            <stop stop-opacity="1" stop-color="rgb(91.960144%, 100%, 94.412231%)" offset="0.25"/>
            <stop stop-opacity="1" stop-color="rgb(91.749573%, 100%, 94.265747%)" offset="0.265625"/>
            <stop stop-opacity="1" stop-color="rgb(91.539001%, 100%, 94.119263%)" offset="0.28125"/>
            <stop stop-opacity="1" stop-color="rgb(91.329956%, 100%, 93.974304%)" offset="0.296875"/>
            <stop stop-opacity="1" stop-color="rgb(91.119385%, 100%, 93.82782%)" offset="0.3125"/>
            <stop stop-opacity="1" stop-color="rgb(90.908813%, 100%, 93.681335%)" offset="0.328125"/>
            <stop stop-opacity="1" stop-color="rgb(90.698242%, 100%, 93.534851%)" offset="0.34375"/>
            <stop stop-opacity="1" stop-color="rgb(90.487671%, 100%, 93.388367%)" offset="0.359375"/>
            <stop stop-opacity="1" stop-color="rgb(90.2771%, 100%, 93.243408%)" offset="0.375"/>
            <stop stop-opacity="1" stop-color="rgb(90.068054%, 100%, 93.096924%)" offset="0.390625"/>
            <stop stop-opacity="1" stop-color="rgb(89.857483%, 100%, 92.950439%)" offset="0.40625"/>
            <stop stop-opacity="1" stop-color="rgb(89.646912%, 100%, 92.803955%)" offset="0.421875"/>
            <stop stop-opacity="1" stop-color="rgb(89.43634%, 100%, 92.657471%)" offset="0.4375"/>
            <stop stop-opacity="1" stop-color="rgb(89.225769%, 100%, 92.512512%)" offset="0.453125"/>
            <stop stop-opacity="1" stop-color="rgb(89.015198%, 100%, 92.366028%)" offset="0.46875"/>
            <stop stop-opacity="1" stop-color="rgb(88.804626%, 100%, 92.219543%)" offset="0.484375"/>
            <stop stop-opacity="1" stop-color="rgb(88.595581%, 100%, 92.073059%)" offset="0.5"/>
            <stop stop-opacity="1" stop-color="rgb(88.38501%, 100%, 91.926575%)" offset="0.515625"/>
            <stop stop-opacity="1" stop-color="rgb(88.174438%, 100%, 91.781616%)" offset="0.53125"/>
            <stop stop-opacity="1" stop-color="rgb(87.963867%, 100%, 91.635132%)" offset="0.546875"/>
            <stop stop-opacity="1" stop-color="rgb(87.753296%, 100%, 91.488647%)" offset="0.5625"/>
            <stop stop-opacity="1" stop-color="rgb(87.542725%, 100%, 91.342163%)" offset="0.578125"/>
            <stop stop-opacity="1" stop-color="rgb(87.332153%, 100%, 91.195679%)" offset="0.59375"/>
            <stop stop-opacity="1" stop-color="rgb(87.123108%, 100%, 91.05072%)" offset="0.609375"/>
            <stop stop-opacity="1" stop-color="rgb(86.912537%, 100%, 90.904236%)" offset="0.625"/>
            <stop stop-opacity="1" stop-color="rgb(86.701965%, 100%, 90.757751%)" offset="0.640625"/>
            <stop stop-opacity="1" stop-color="rgb(86.491394%, 100%, 90.611267%)" offset="0.65625"/>
            <stop stop-opacity="1" stop-color="rgb(86.280823%, 100%, 90.464783%)" offset="0.671875"/>
            <stop stop-opacity="1" stop-color="rgb(86.070251%, 100%, 90.319824%)" offset="0.6875"/>
            <stop stop-opacity="1" stop-color="rgb(85.861206%, 100%, 90.17334%)" offset="0.703125"/>
            <stop stop-opacity="1" stop-color="rgb(85.650635%, 100%, 90.026855%)" offset="0.71875"/>
            <stop stop-opacity="1" stop-color="rgb(85.440063%, 100%, 89.880371%)" offset="0.734375"/>
            <stop stop-opacity="1" stop-color="rgb(85.229492%, 100%, 89.733887%)" offset="0.75"/>
            <stop stop-opacity="1" stop-color="rgb(85.018921%, 100%, 89.588928%)" offset="0.765625"/>
            <stop stop-opacity="1" stop-color="rgb(84.80835%, 100%, 89.442444%)" offset="0.78125"/>
            <stop stop-opacity="1" stop-color="rgb(84.597778%, 100%, 89.295959%)" offset="0.796875"/>
            <stop stop-opacity="1" stop-color="rgb(84.388733%, 100%, 89.149475%)" offset="0.8125"/>
            <stop stop-opacity="1" stop-color="rgb(84.178162%, 100%, 89.002991%)" offset="0.828125"/>
            <stop stop-opacity="1" stop-color="rgb(83.96759%, 100%, 88.858032%)" offset="0.84375"/>
            <stop stop-opacity="1" stop-color="rgb(83.757019%, 100%, 88.711548%)" offset="0.859375"/>
            <stop stop-opacity="1" stop-color="rgb(83.546448%, 100%, 88.565063%)" offset="0.872212"/>
            <stop stop-opacity="1" stop-color="rgb(83.441162%, 100%, 88.491821%)" offset="0.875"/>
            <stop stop-opacity="1" stop-color="rgb(83.335876%, 100%, 88.418579%)" offset="0.890625"/>
            <stop stop-opacity="1" stop-color="rgb(83.125305%, 100%, 88.272095%)" offset="0.90625"/>
            <stop stop-opacity="1" stop-color="rgb(82.91626%, 100%, 88.127136%)" offset="0.921875"/>
            <stop stop-opacity="1" stop-color="rgb(82.705688%, 100%, 87.980652%)" offset="0.9375"/>
            <stop stop-opacity="1" stop-color="rgb(82.495117%, 100%, 87.834167%)" offset="0.953125"/>
            <stop stop-opacity="1" stop-color="rgb(82.284546%, 100%, 87.687683%)" offset="0.96875"/>
            <stop stop-opacity="1" stop-color="rgb(82.073975%, 100%, 87.541199%)" offset="0.984375"/>
            <stop stop-opacity="1" stop-color="rgb(81.863403%, 100%, 87.39624%)" offset="1"/>
        </linearGradient>
        <clipPath id="0e2c62f30b">
            <path d="M 138.21875 119.136719 L 169.109375 119.136719 L 169.109375 131.492188 L 138.21875 131.492188 Z M 138.21875 119.136719 "
                  clip-rule="nonzero"/>
        </clipPath>
        <linearGradient x1="10.603557" gradientTransform="matrix(6.17816, 0, 0, 6.17816, 101.148295, 57.355589)"
                        y1="9.458821" x2="6.396237" gradientUnits="userSpaceOnUse" y2="12.5409" id="0fce09eb75">
            <stop stop-opacity="1" stop-color="rgb(85.908508%, 100%, 90.206909%)" offset="0"/>
            <stop stop-opacity="1" stop-color="rgb(85.78949%, 100%, 90.124512%)" offset="0.03125"/>
            <stop stop-opacity="1" stop-color="rgb(85.552979%, 100%, 89.959717%)" offset="0.0625"/>
            <stop stop-opacity="1" stop-color="rgb(85.314941%, 100%, 89.794922%)" offset="0.09375"/>
            <stop stop-opacity="1" stop-color="rgb(85.07843%, 100%, 89.630127%)" offset="0.125"/>
            <stop stop-opacity="1" stop-color="rgb(84.840393%, 100%, 89.465332%)" offset="0.15625"/>
            <stop stop-opacity="1" stop-color="rgb(84.603882%, 100%, 89.300537%)" offset="0.1875"/>
            <stop stop-opacity="1" stop-color="rgb(84.367371%, 100%, 89.135742%)" offset="0.21875"/>
            <stop stop-opacity="1" stop-color="rgb(84.129333%, 100%, 88.970947%)" offset="0.226617"/>
            <stop stop-opacity="1" stop-color="rgb(84.011841%, 100%, 88.88855%)" offset="0.25"/>
            <stop stop-opacity="1" stop-color="rgb(83.892822%, 100%, 88.806152%)" offset="0.28125"/>
            <stop stop-opacity="1" stop-color="rgb(83.654785%, 100%, 88.639832%)" offset="0.3125"/>
            <stop stop-opacity="1" stop-color="rgb(83.418274%, 100%, 88.475037%)" offset="0.34375"/>
            <stop stop-opacity="1" stop-color="rgb(83.180237%, 100%, 88.310242%)" offset="0.375"/>
            <stop stop-opacity="1" stop-color="rgb(82.943726%, 100%, 88.145447%)" offset="0.40625"/>
            <stop stop-opacity="1" stop-color="rgb(82.705688%, 100%, 87.980652%)" offset="0.4375"/>
            <stop stop-opacity="1" stop-color="rgb(82.469177%, 100%, 87.815857%)" offset="0.46875"/>
            <stop stop-opacity="1" stop-color="rgb(82.23114%, 100%, 87.651062%)" offset="0.5"/>
            <stop stop-opacity="1" stop-color="rgb(81.994629%, 100%, 87.486267%)" offset="0.53125"/>
            <stop stop-opacity="1" stop-color="rgb(81.756592%, 100%, 87.321472%)" offset="0.5625"/>
            <stop stop-opacity="1" stop-color="rgb(81.520081%, 100%, 87.156677%)" offset="0.59375"/>
            <stop stop-opacity="1" stop-color="rgb(81.283569%, 100%, 86.991882%)" offset="0.625"/>
            <stop stop-opacity="1" stop-color="rgb(81.045532%, 100%, 86.827087%)" offset="0.65625"/>
            <stop stop-opacity="1" stop-color="rgb(80.809021%, 100%, 86.662292%)" offset="0.6875"/>
            <stop stop-opacity="1" stop-color="rgb(80.570984%, 100%, 86.497498%)" offset="0.71875"/>
            <stop stop-opacity="1" stop-color="rgb(80.334473%, 100%, 86.332703%)" offset="0.75"/>
            <stop stop-opacity="1" stop-color="rgb(80.096436%, 100%, 86.167908%)" offset="0.773383"/>
            <stop stop-opacity="1" stop-color="rgb(79.978943%, 100%, 86.08551%)" offset="0.78125"/>
            <stop stop-opacity="1" stop-color="rgb(79.859924%, 100%, 86.003113%)" offset="0.8125"/>
            <stop stop-opacity="1" stop-color="rgb(79.621887%, 100%, 85.838318%)" offset="0.84375"/>
            <stop stop-opacity="1" stop-color="rgb(79.385376%, 100%, 85.673523%)" offset="0.875"/>
            <stop stop-opacity="1" stop-color="rgb(79.147339%, 100%, 85.508728%)" offset="0.90625"/>
            <stop stop-opacity="1" stop-color="rgb(78.910828%, 100%, 85.343933%)" offset="0.9375"/>
            <stop stop-opacity="1" stop-color="rgb(78.672791%, 100%, 85.179138%)" offset="0.96875"/>
            <stop stop-opacity="1" stop-color="rgb(78.436279%, 100%, 85.014343%)" offset="1"/>
        </linearGradient>
    </defs>
    <g clip-path="url(#d5a81ea167)">
        <g clip-path="url(#dc764333c6)">
            <path fill="url(#eb23b7bb10)"
                  d="M 162.929688 119.136719 L 162.929688 224.191406 L 267.957031 224.191406 L 267.957031 119.136719 Z M 162.929688 119.136719 "
                  fill-rule="nonzero"/>
        </g>
    </g>
    <g clip-path="url(#f75328ec61)">
        <g clip-path="url(#21068c17e6)">
            <path fill="url(#f279dc54f5)"
                  d="M 107.328125 63.535156 L 107.328125 187.125 L 230.890625 187.125 L 230.890625 63.535156 Z M 107.328125 63.535156 "
                  fill-rule="nonzero"/>
        </g>
    </g>
    <g clip-path="url(#930571ccbd)">
        <path fill="url(#fa9cd0aaca)"
              d="M 138.21875 94.425781 L 138.21875 106.78125 L 200 106.78125 L 200 94.425781 Z M 138.21875 94.425781 "
              fill-rule="nonzero"/>
    </g>
    <g clip-path="url(#0e2c62f30b)">
        <path fill="url(#0fce09eb75)"
              d="M 138.21875 119.136719 L 138.21875 131.492188 L 169.109375 131.492188 L 169.109375 119.136719 Z M 138.21875 119.136719 "
              fill-rule="nonzero"/>
    </g>
    <g fill="#272727" fill-opacity="1">
        <g transform="translate(60.107183, 277.891182)">
            <g>
                <path d="M 15.96875 0.253906 C 18.761719 0.253906 21.226562 -0.480469 23.382812 -1.953125 C 25.644531 -3.527344 27.34375 -5.738281 28.4375 -8.554688 C 28.5625 -8.859375 28.664062 -9.34375 28.714844 -10.003906 C 28.742188 -10.382812 28.765625 -10.917969 28.765625 -11.601562 L 28.765625 -16.019531 C 28.765625 -17.214844 28.285156 -18.304688 27.445312 -19.144531 C 26.609375 -19.957031 25.441406 -20.464844 24.246094 -20.464844 L 20.160156 -20.515625 C 18.941406 -20.515625 17.824219 -20.007812 17.011719 -19.167969 C 16.199219 -18.355469 15.714844 -17.238281 15.714844 -16.019531 C 15.714844 -14.800781 16.199219 -13.632812 17.011719 -12.820312 C 17.824219 -11.984375 18.941406 -11.476562 20.160156 -11.476562 L 20.386719 -11.476562 L 20.386719 -11.144531 C 19.878906 -10.359375 19.5 -9.875 18.914062 -9.496094 C 18.253906 -9.0625 17.265625 -8.859375 15.96875 -8.859375 C 14.878906 -8.859375 14.21875 -8.9375 13.53125 -9.367188 C 12.644531 -9.953125 12.210938 -11.144531 12.210938 -12.921875 L 12.210938 -20.386719 C 12.210938 -22.140625 12.667969 -23.332031 13.609375 -23.96875 C 14.292969 -24.398438 15.03125 -24.476562 16.148438 -24.476562 C 16.832031 -24.476562 17.367188 -24.425781 17.796875 -24.347656 C 18.535156 -24.144531 18.941406 -23.839844 19.246094 -23.308594 C 19.320312 -23.15625 19.5 -22.851562 19.804688 -22.417969 C 20.488281 -21.378906 21.605469 -20.84375 22.953125 -20.84375 C 24.273438 -20.84375 25.441406 -21.351562 26.328125 -22.191406 C 27.140625 -23.003906 27.625 -24.121094 27.625 -25.3125 C 27.625 -26.355469 27.320312 -27.320312 26.683594 -28.257812 C 25.441406 -29.859375 24.144531 -31.050781 22.800781 -31.890625 C 20.945312 -33.03125 18.738281 -33.589844 16.148438 -33.589844 C 12.695312 -33.589844 9.496094 -32.398438 7.082031 -30.164062 C 4.570312 -27.828125 3.121094 -24.449219 3.121094 -20.3125 L 3.121094 -13 C 3.121094 -8.859375 4.542969 -5.507812 6.980469 -3.199219 C 9.316406 -0.964844 12.515625 0.253906 15.96875 0.253906 Z M 15.96875 0.253906 "/>
            </g>
        </g>
    </g>
    <g fill="#272727" fill-opacity="1">
        <g transform="translate(91.259144, 277.891182)">
            <g>
                <path d="M 6.855469 0 C 8.046875 0 9.164062 -0.480469 9.976562 -1.292969 C 10.789062 -2.105469 11.273438 -3.199219 11.273438 -4.417969 L 11.273438 -11.578125 C 11.296875 -12.59375 11.753906 -13.582031 12.492188 -14.320312 C 13.226562 -15.054688 14.140625 -15.460938 15.234375 -15.539062 L 15.410156 -15.539062 C 16.628906 -15.5625 17.796875 -16.046875 18.636719 -16.859375 C 19.523438 -17.695312 19.957031 -18.761719 19.957031 -20.03125 C 19.957031 -21.300781 19.550781 -22.34375 18.761719 -23.179688 C 17.898438 -24.042969 16.78125 -24.476562 15.4375 -24.5 L 15.285156 -24.5 C 11.90625 -24.5 8.65625 -23.128906 6.296875 -20.792969 C 3.882812 -18.457031 2.386719 -15.285156 2.257812 -11.90625 L 2.257812 -4.417969 C 2.257812 -3.199219 2.792969 -2.105469 3.628906 -1.292969 C 4.46875 -0.480469 5.636719 0 6.855469 0 Z M 6.855469 0 "/>
            </g>
        </g>
    </g>
    <g fill="#272727" fill-opacity="1">
        <g transform="translate(111.773226, 277.891182)">
            <g>
                <path d="M 13.226562 0.277344 C 15.4375 0.277344 17.644531 -0.101562 19.269531 -0.835938 C 21.125 -1.675781 22.0625 -2.867188 22.0625 -4.417969 C 22.0625 -5.332031 21.707031 -6.449219 21.074219 -7.261719 C 20.234375 -8.277344 19.144531 -8.785156 17.796875 -8.785156 C 17.113281 -8.785156 16.351562 -8.65625 15.5625 -8.378906 C 15.132812 -8.25 14.699219 -8.175781 14.292969 -8.175781 C 13.660156 -8.175781 13.074219 -8.277344 12.515625 -8.480469 C 11.90625 -8.707031 11.476562 -9.011719 11.195312 -9.394531 L 21.707031 -9.394531 C 23.128906 -9.394531 24.171875 -9.519531 24.90625 -9.925781 C 25.746094 -10.359375 26.152344 -11.144531 26.152344 -12.3125 C 26.074219 -15.640625 24.679688 -18.738281 22.367188 -20.972656 C 20.058594 -23.207031 16.933594 -24.5 13.660156 -24.5 C 10.28125 -24.5 7.160156 -23.15625 4.824219 -20.894531 C 2.488281 -18.636719 1.117188 -15.460938 1.117188 -12.085938 C 1.117188 -8.734375 2.460938 -5.660156 4.773438 -3.351562 C 7.03125 -1.089844 10.054688 0.277344 13.226562 0.277344 Z M 10.917969 -14.242188 C 11.09375 -14.648438 11.375 -15.183594 11.703125 -15.511719 C 12.1875 -15.945312 12.898438 -16.171875 13.835938 -16.171875 C 14.421875 -16.171875 14.851562 -16.121094 15.15625 -15.996094 C 15.792969 -15.765625 16.25 -15.410156 16.527344 -14.929688 L 16.910156 -14.242188 Z M 10.917969 -14.242188 "/>
            </g>
        </g>
    </g>
    <g fill="#272727" fill-opacity="1">
        <g transform="translate(139.040708, 277.891182)">
            <g>
                <path d="M 21.378906 0.378906 C 22.597656 0.378906 23.816406 -0.125 24.652344 -0.964844 C 25.542969 -1.902344 26 -2.96875 26 -4.214844 L 26 -12.085938 C 26 -15.410156 24.628906 -18.535156 22.316406 -20.84375 C 20.007812 -23.15625 16.882812 -24.5 13.507812 -24.5 C 10.179688 -24.5 7.082031 -23.15625 4.746094 -20.84375 C 2.410156 -18.535156 1.015625 -15.410156 1.015625 -12.085938 C 1.015625 -8.757812 2.410156 -5.636719 4.746094 -3.375 C 7.082031 -1.117188 10.179688 0.253906 13.507812 0.253906 C 15.183594 0.253906 16.808594 -0.0742188 18.40625 -0.734375 C 19.144531 -0.0234375 20.183594 0.378906 21.378906 0.378906 Z M 13.507812 -8.785156 C 12.617188 -8.785156 11.832031 -9.113281 11.144531 -9.75 C 10.410156 -10.382812 10.054688 -11.171875 10.054688 -12.085938 C 10.054688 -12.972656 10.410156 -13.761719 11.121094 -14.445312 C 11.753906 -15.03125 12.617188 -15.386719 13.507812 -15.386719 C 14.421875 -15.386719 15.308594 -15.03125 15.945312 -14.445312 C 16.628906 -13.761719 16.984375 -12.972656 16.984375 -12.085938 C 16.984375 -11.195312 16.628906 -10.410156 15.917969 -9.75 C 15.285156 -9.140625 14.421875 -8.785156 13.507812 -8.785156 Z M 13.507812 -8.785156 "/>
            </g>
        </g>
    </g>
    <g fill="#272727" fill-opacity="1">
        <g transform="translate(167.196799, 277.891182)">
            <g>
                <path d="M 14.597656 0.304688 C 16.730469 0.304688 19.066406 -0.355469 20.871094 -1.496094 C 22.800781 -2.714844 23.992188 -4.46875 23.992188 -6.523438 C 23.992188 -7.71875 23.535156 -8.785156 22.75 -9.570312 C 21.960938 -10.359375 20.945312 -10.789062 19.90625 -10.789062 C 18.585938 -10.789062 17.542969 -10.257812 16.527344 -9.265625 C 16.148438 -8.886719 15.488281 -8.707031 14.597656 -8.707031 C 13.734375 -8.707031 13 -9.0625 12.390625 -9.75 C 11.804688 -10.359375 11.5 -11.246094 11.5 -12.1875 L 11.5 -17.0625 L 17.035156 -17.0625 C 18.253906 -17.0625 19.398438 -17.519531 20.210938 -18.332031 C 21.046875 -19.144531 21.554688 -20.210938 21.554688 -21.402344 C 21.554688 -22.597656 21.046875 -23.765625 20.234375 -24.601562 C 19.398438 -25.414062 18.230469 -25.921875 17.035156 -25.921875 L 11.5 -25.921875 L 11.5 -27.472656 C 11.5 -28.714844 10.96875 -29.859375 10.078125 -30.695312 C 9.191406 -31.507812 8.023438 -32.015625 6.804688 -32.015625 C 5.609375 -32.015625 4.441406 -31.507812 3.628906 -30.695312 C 2.792969 -29.882812 2.257812 -28.691406 2.257812 -27.472656 L 2.257812 -12.238281 C 2.257812 -8.886719 3.605469 -5.761719 5.863281 -3.425781 C 8.175781 -1.089844 11.246094 0.304688 14.597656 0.304688 Z M 14.597656 0.304688 "/>
            </g>
        </g>
    </g>
    <g fill="#272727" fill-opacity="1">
        <g transform="translate(191.747694, 277.891182)">
            <g/>
        </g>
    </g>
    <g fill="#272727" fill-opacity="1">
        <g transform="translate(203.451897, 277.891182)">
            <g>
                <path d="M 15.640625 0.253906 C 18.230469 0.253906 20.4375 -0.304688 22.292969 -1.445312 C 23.636719 -2.234375 24.933594 -3.453125 26.175781 -5.050781 C 26.8125 -5.941406 27.140625 -6.929688 27.140625 -8.023438 C 27.140625 -9.214844 26.609375 -10.308594 25.769531 -11.144531 C 24.933594 -11.957031 23.738281 -12.441406 22.417969 -12.441406 C 21.785156 -12.441406 21.199219 -12.3125 20.667969 -12.058594 C 19.753906 -11.628906 19.269531 -10.917969 18.761719 -10.027344 C 18.609375 -9.773438 18.433594 -9.570312 18.203125 -9.394531 C 17.722656 -9.011719 16.984375 -8.859375 15.640625 -8.859375 C 14.523438 -8.859375 13.835938 -8.9375 13.203125 -9.367188 C 12.339844 -9.953125 11.90625 -11.144531 11.90625 -12.921875 L 11.90625 -20.386719 C 11.90625 -22.140625 12.339844 -23.332031 13.203125 -23.96875 C 13.835938 -24.398438 14.523438 -24.476562 15.640625 -24.476562 C 16.324219 -24.476562 16.859375 -24.425781 17.289062 -24.347656 C 18.027344 -24.144531 18.457031 -23.839844 18.761719 -23.308594 C 18.839844 -23.15625 19.015625 -22.851562 19.320312 -22.417969 C 19.957031 -21.378906 21.125 -20.84375 22.445312 -20.84375 C 23.738281 -20.84375 24.957031 -21.351562 25.796875 -22.164062 C 26.632812 -22.976562 27.140625 -24.070312 27.140625 -25.261719 C 27.140625 -26.304688 26.8125 -27.320312 26.175781 -28.257812 C 24.933594 -29.859375 23.636719 -31.050781 22.292969 -31.890625 C 20.4375 -33.03125 18.230469 -33.589844 15.640625 -33.589844 C 12.1875 -33.589844 9.011719 -32.398438 6.675781 -30.164062 C 4.238281 -27.828125 2.816406 -24.449219 2.816406 -20.3125 L 2.816406 -13 C 2.816406 -8.859375 4.238281 -5.507812 6.675781 -3.199219 C 9.011719 -0.964844 12.1875 0.253906 15.640625 0.253906 Z M 15.640625 0.253906 "/>
            </g>
        </g>
    </g>
    <g fill="#272727" fill-opacity="1">
        <g transform="translate(232.395034, 277.891182)">
            <g>
                <path d="M 23.027344 0.0742188 C 24.246094 0.0742188 25.363281 -0.378906 26.175781 -1.191406 C 27.015625 -2.003906 27.523438 -3.097656 27.523438 -4.316406 L 27.523438 -12.363281 C 27.523438 -15.640625 26.253906 -18.710938 24.09375 -20.945312 C 21.886719 -23.207031 18.890625 -24.5 15.613281 -24.5 C 14.421875 -24.5 12.871094 -24.222656 11.882812 -23.816406 L 11.882812 -28.765625 C 11.882812 -29.984375 11.375 -31.152344 10.5625 -31.964844 C 9.75 -32.804688 8.605469 -33.285156 7.414062 -33.285156 C 6.21875 -33.285156 5.050781 -32.777344 4.238281 -31.964844 C 3.402344 -31.128906 2.867188 -29.984375 2.867188 -28.765625 L 2.867188 -4.441406 C 2.867188 -3.25 3.375 -2.132812 4.1875 -1.320312 C 5.027344 -0.480469 6.167969 0 7.414062 0 C 8.632812 0 9.75 -0.480469 10.585938 -1.320312 C 11.398438 -2.105469 11.882812 -3.222656 11.882812 -4.441406 L 11.882812 -12.871094 C 11.90625 -13.660156 12.261719 -14.320312 12.972656 -14.878906 C 13.609375 -15.359375 14.421875 -15.613281 15.359375 -15.613281 C 16.300781 -15.613281 17.0625 -15.308594 17.644531 -14.699219 C 18.230469 -14.066406 18.535156 -13.277344 18.535156 -12.390625 L 18.535156 -4.316406 C 18.535156 -3.097656 19.015625 -2.003906 19.855469 -1.191406 C 20.667969 -0.378906 21.808594 0.0742188 23.027344 0.0742188 Z M 23.027344 0.0742188 "/>
            </g>
        </g>
    </g>
    <g fill="#272727" fill-opacity="1">
        <g transform="translate(262.176003, 277.891182)">
            <g>
                <path d="M 21.378906 0.378906 C 22.597656 0.378906 23.816406 -0.125 24.652344 -0.964844 C 25.542969 -1.902344 26 -2.96875 26 -4.214844 L 26 -12.085938 C 26 -15.410156 24.628906 -18.535156 22.316406 -20.84375 C 20.007812 -23.15625 16.882812 -24.5 13.507812 -24.5 C 10.179688 -24.5 7.082031 -23.15625 4.746094 -20.84375 C 2.410156 -18.535156 1.015625 -15.410156 1.015625 -12.085938 C 1.015625 -8.757812 2.410156 -5.636719 4.746094 -3.375 C 7.082031 -1.117188 10.179688 0.253906 13.507812 0.253906 C 15.183594 0.253906 16.808594 -0.0742188 18.40625 -0.734375 C 19.144531 -0.0234375 20.183594 0.378906 21.378906 0.378906 Z M 13.507812 -8.785156 C 12.617188 -8.785156 11.832031 -9.113281 11.144531 -9.75 C 10.410156 -10.382812 10.054688 -11.171875 10.054688 -12.085938 C 10.054688 -12.972656 10.410156 -13.761719 11.121094 -14.445312 C 11.753906 -15.03125 12.617188 -15.386719 13.507812 -15.386719 C 14.421875 -15.386719 15.308594 -15.03125 15.945312 -14.445312 C 16.628906 -13.761719 16.984375 -12.972656 16.984375 -12.085938 C 16.984375 -11.195312 16.628906 -10.410156 15.917969 -9.75 C 15.285156 -9.140625 14.421875 -8.785156 13.507812 -8.785156 Z M 13.507812 -8.785156 "/>
            </g>
        </g>
    </g>
    <g fill="#272727" fill-opacity="1">
        <g transform="translate(290.332084, 277.891182)">
            <g>
                <path d="M 14.597656 0.304688 C 16.730469 0.304688 19.066406 -0.355469 20.871094 -1.496094 C 22.800781 -2.714844 23.992188 -4.46875 23.992188 -6.523438 C 23.992188 -7.71875 23.535156 -8.785156 22.75 -9.570312 C 21.960938 -10.359375 20.945312 -10.789062 19.90625 -10.789062 C 18.585938 -10.789062 17.542969 -10.257812 16.527344 -9.265625 C 16.148438 -8.886719 15.488281 -8.707031 14.597656 -8.707031 C 13.734375 -8.707031 13 -9.0625 12.390625 -9.75 C 11.804688 -10.359375 11.5 -11.246094 11.5 -12.1875 L 11.5 -17.0625 L 17.035156 -17.0625 C 18.253906 -17.0625 19.398438 -17.519531 20.210938 -18.332031 C 21.046875 -19.144531 21.554688 -20.210938 21.554688 -21.402344 C 21.554688 -22.597656 21.046875 -23.765625 20.234375 -24.601562 C 19.398438 -25.414062 18.230469 -25.921875 17.035156 -25.921875 L 11.5 -25.921875 L 11.5 -27.472656 C 11.5 -28.714844 10.96875 -29.859375 10.078125 -30.695312 C 9.191406 -31.507812 8.023438 -32.015625 6.804688 -32.015625 C 5.609375 -32.015625 4.441406 -31.507812 3.628906 -30.695312 C 2.792969 -29.882812 2.257812 -28.691406 2.257812 -27.472656 L 2.257812 -12.238281 C 2.257812 -8.886719 3.605469 -5.761719 5.863281 -3.425781 C 8.175781 -1.089844 11.246094 0.304688 14.597656 0.304688 Z M 14.597656 0.304688 "/>
            </g>
        </g>
    </g>
    <g fill="#272727" fill-opacity="1">
        <g transform="translate(72.328982, 301.566249)">
            <g>
                <path d="M 11.90625 -5.53125 C 11.90625 -4.519531 11.671875 -3.582031 11.203125 -2.71875 C 10.742188 -1.851562 10.101562 -1.15625 9.28125 -0.625 C 8.457031 -0.09375 7.539062 0.171875 6.53125 0.171875 C 5.882812 0.171875 5.242188 0.0078125 4.609375 -0.3125 C 3.972656 -0.644531 3.460938 -1.082031 3.078125 -1.625 L 2.953125 -0.796875 C 2.847656 -0.117188 2.546875 0.21875 2.046875 0.21875 C 1.765625 0.21875 1.523438 0.117188 1.328125 -0.078125 C 1.128906 -0.273438 1.03125 -0.515625 1.03125 -0.796875 L 1.03125 -13.890625 C 1.03125 -14.171875 1.128906 -14.410156 1.328125 -14.609375 C 1.523438 -14.816406 1.765625 -14.921875 2.046875 -14.921875 C 2.328125 -14.921875 2.566406 -14.816406 2.765625 -14.609375 C 2.972656 -14.410156 3.078125 -14.171875 3.078125 -13.890625 L 3.078125 -9.578125 C 4.035156 -10.691406 5.160156 -11.25 6.453125 -11.25 C 7.148438 -11.25 7.820312 -11.113281 8.46875 -10.84375 C 9.125 -10.582031 9.703125 -10.207031 10.203125 -9.71875 C 10.753906 -9.175781 11.175781 -8.535156 11.46875 -7.796875 C 11.757812 -7.066406 11.90625 -6.3125 11.90625 -5.53125 Z M 6.546875 -1.875 C 7.484375 -1.875 8.269531 -2.238281 8.90625 -2.96875 C 9.539062 -3.695312 9.859375 -4.550781 9.859375 -5.53125 C 9.859375 -6.507812 9.535156 -7.367188 8.890625 -8.109375 C 8.242188 -8.859375 7.445312 -9.234375 6.5 -9.234375 C 5.539062 -9.234375 4.738281 -8.875 4.09375 -8.15625 C 3.457031 -7.4375 3.140625 -6.578125 3.140625 -5.578125 C 3.140625 -5.097656 3.222656 -4.625 3.390625 -4.15625 C 3.566406 -3.695312 3.804688 -3.300781 4.109375 -2.96875 C 4.421875 -2.632812 4.796875 -2.367188 5.234375 -2.171875 C 5.671875 -1.972656 6.109375 -1.875 6.546875 -1.875 Z M 6.546875 -1.875 "/>
            </g>
        </g>
        <g transform="translate(84.746461, 301.566249)">
            <g>
                <path d="M 7.828125 -9.9375 C 7.828125 -9.394531 7.5625 -9.09375 7.03125 -9.03125 C 6.90625 -9.007812 6.65625 -9.070312 6.28125 -9.21875 C 5.90625 -9.363281 5.617188 -9.4375 5.421875 -9.4375 C 4.578125 -9.4375 3.96875 -9.128906 3.59375 -8.515625 C 3.21875 -7.898438 3.03125 -7.070312 3.03125 -6.03125 L 3.03125 -0.734375 C 3.03125 -0.429688 2.9375 -0.191406 2.75 -0.015625 C 2.5625 0.160156 2.3125 0.25 2 0.25 C 1.6875 0.25 1.4375 0.160156 1.25 -0.015625 C 1.0625 -0.191406 0.96875 -0.4375 0.96875 -0.75 L 0.96875 -10.1875 C 0.96875 -10.507812 1.046875 -10.765625 1.203125 -10.953125 C 1.367188 -11.148438 1.578125 -11.25 1.828125 -11.25 C 2.023438 -11.25 2.21875 -11.175781 2.40625 -11.03125 C 2.601562 -10.882812 2.738281 -10.660156 2.8125 -10.359375 L 2.921875 -9.625 C 3.078125 -9.96875 3.398438 -10.320312 3.890625 -10.6875 C 4.390625 -11.050781 4.898438 -11.234375 5.421875 -11.234375 C 6.210938 -11.234375 6.8125 -11.140625 7.21875 -10.953125 C 7.625 -10.773438 7.828125 -10.4375 7.828125 -9.9375 Z M 7.828125 -9.9375 "/>
            </g>
        </g>
        <g transform="translate(92.826539, 301.566249)">
            <g>
                <path d="M 2.078125 -12.28125 C 1.765625 -12.28125 1.507812 -12.375 1.3125 -12.5625 C 1.113281 -12.757812 1.007812 -13.003906 1 -13.296875 L 0.984375 -14.078125 C 0.984375 -14.316406 1.09375 -14.519531 1.3125 -14.6875 C 1.539062 -14.863281 1.769531 -14.953125 2 -14.953125 C 2.289062 -14.953125 2.53125 -14.851562 2.71875 -14.65625 C 2.914062 -14.457031 3.019531 -14.21875 3.03125 -13.9375 L 3.03125 -13.3125 C 3.03125 -13.039062 2.9375 -12.800781 2.75 -12.59375 C 2.570312 -12.382812 2.347656 -12.28125 2.078125 -12.28125 Z M 0.96875 -10.34375 C 0.96875 -10.582031 1.070312 -10.789062 1.28125 -10.96875 C 1.488281 -11.144531 1.707031 -11.234375 1.9375 -11.234375 C 2.25 -11.234375 2.507812 -11.140625 2.71875 -10.953125 C 2.925781 -10.773438 3.03125 -10.539062 3.03125 -10.25 L 3.046875 -0.75 C 3.046875 -0.476562 2.941406 -0.242188 2.734375 -0.046875 C 2.535156 0.140625 2.296875 0.234375 2.015625 0.234375 C 1.734375 0.234375 1.492188 0.140625 1.296875 -0.046875 C 1.097656 -0.242188 1 -0.484375 1 -0.765625 Z M 0.96875 -10.34375 "/>
            </g>
        </g>
        <g transform="translate(96.84607, 301.566249)">
            <g>
                <path d="M 3.03125 -9.609375 C 3.34375 -9.910156 3.625 -10.160156 3.875 -10.359375 C 4.125 -10.566406 4.457031 -10.757812 4.875 -10.9375 C 5.300781 -11.125 5.726562 -11.21875 6.15625 -11.21875 C 6.988281 -11.21875 7.707031 -10.992188 8.3125 -10.546875 C 8.925781 -10.109375 9.390625 -9.539062 9.703125 -8.84375 C 10.003906 -8.144531 10.15625 -7.191406 10.15625 -5.984375 L 10.15625 -0.8125 C 10.15625 -0.53125 10.054688 -0.285156 9.859375 -0.078125 C 9.660156 0.117188 9.421875 0.21875 9.140625 0.21875 C 8.859375 0.21875 8.613281 0.117188 8.40625 -0.078125 C 8.207031 -0.285156 8.109375 -0.53125 8.109375 -0.8125 L 8.109375 -5.984375 C 8.109375 -6.910156 8.015625 -7.585938 7.828125 -8.015625 C 7.671875 -8.347656 7.453125 -8.625 7.171875 -8.84375 C 6.890625 -9.0625 6.554688 -9.171875 6.171875 -9.171875 C 5.171875 -9.171875 4.394531 -8.785156 3.84375 -8.015625 C 3.300781 -7.253906 3.03125 -6.207031 3.03125 -4.875 L 3.046875 -0.796875 C 3.046875 -0.515625 2.941406 -0.269531 2.734375 -0.0625 C 2.535156 0.132812 2.296875 0.234375 2.015625 0.234375 C 1.734375 0.234375 1.492188 0.132812 1.296875 -0.0625 C 1.097656 -0.269531 1 -0.515625 1 -0.796875 L 0.96875 -10.21875 C 0.96875 -10.519531 1.046875 -10.765625 1.203125 -10.953125 C 1.367188 -11.148438 1.585938 -11.25 1.859375 -11.25 C 2.328125 -11.25 2.65625 -10.90625 2.84375 -10.21875 Z M 3.03125 -9.609375 "/>
            </g>
        </g>
        <g transform="translate(107.981811, 301.566249)">
            <g>
                <path d="M 10.3125 -11.265625 C 10.59375 -11.265625 10.832031 -11.164062 11.03125 -10.96875 C 11.238281 -10.769531 11.34375 -10.53125 11.34375 -10.25 L 11.34375 -10.21875 L 11.265625 -0.4375 C 11.265625 0.570312 11 1.507812 10.46875 2.375 C 9.945312 3.238281 9.242188 3.921875 8.359375 4.421875 C 7.484375 4.929688 6.539062 5.1875 5.53125 5.1875 C 4.65625 5.1875 3.820312 4.992188 3.03125 4.609375 C 2.238281 4.234375 1.570312 3.707031 1.03125 3.03125 C 0.875 2.832031 0.796875 2.613281 0.796875 2.375 C 0.796875 2.09375 0.894531 1.847656 1.09375 1.640625 C 1.300781 1.441406 1.546875 1.34375 1.828125 1.34375 C 1.960938 1.34375 2.109375 1.378906 2.265625 1.453125 C 2.429688 1.535156 2.554688 1.632812 2.640625 1.75 C 2.972656 2.164062 3.398438 2.5 3.921875 2.75 C 4.453125 3.007812 4.988281 3.140625 5.53125 3.140625 C 6.53125 3.140625 7.394531 2.78125 8.125 2.0625 C 8.851562 1.351562 9.21875 0.507812 9.21875 -0.46875 L 9.21875 -1.46875 C 8.507812 -0.363281 7.441406 0.1875 6.015625 0.1875 C 5.035156 0.1875 4.140625 -0.0859375 3.328125 -0.640625 C 2.523438 -1.203125 1.894531 -1.921875 1.4375 -2.796875 C 0.988281 -3.679688 0.765625 -4.617188 0.765625 -5.609375 C 0.765625 -6.585938 0.988281 -7.503906 1.4375 -8.359375 C 1.882812 -9.222656 2.515625 -9.914062 3.328125 -10.4375 C 4.140625 -10.96875 5.035156 -11.234375 6.015625 -11.234375 C 6.671875 -11.234375 7.28125 -11.078125 7.84375 -10.765625 C 8.414062 -10.460938 8.894531 -10.007812 9.28125 -9.40625 L 9.4375 -10.234375 C 9.5625 -10.921875 9.851562 -11.265625 10.3125 -11.265625 Z M 9.203125 -5.59375 C 9.203125 -6.550781 8.894531 -7.390625 8.28125 -8.109375 C 7.675781 -8.828125 6.929688 -9.1875 6.046875 -9.1875 C 5.128906 -9.1875 4.363281 -8.828125 3.75 -8.109375 C 3.132812 -7.390625 2.828125 -6.554688 2.828125 -5.609375 C 2.828125 -4.640625 3.132812 -3.769531 3.75 -3 C 4.363281 -2.238281 5.117188 -1.859375 6.015625 -1.859375 C 6.597656 -1.859375 7.132812 -2.039062 7.625 -2.40625 C 8.125 -2.769531 8.507812 -3.238281 8.78125 -3.8125 C 9.0625 -4.382812 9.203125 -4.976562 9.203125 -5.59375 Z M 9.203125 -5.59375 "/>
            </g>
        </g>
        <g transform="translate(120.337768, 301.566249)">
            <g/>
        </g>
        <g transform="translate(126.079955, 301.566249)">
            <g>
                <path d="M 10.3125 -11.265625 C 10.59375 -11.265625 10.832031 -11.164062 11.03125 -10.96875 C 11.238281 -10.769531 11.34375 -10.53125 11.34375 -10.25 L 11.34375 -10.21875 L 11.265625 -0.4375 C 11.265625 0.570312 11 1.507812 10.46875 2.375 C 9.945312 3.238281 9.242188 3.921875 8.359375 4.421875 C 7.484375 4.929688 6.539062 5.1875 5.53125 5.1875 C 4.65625 5.1875 3.820312 4.992188 3.03125 4.609375 C 2.238281 4.234375 1.570312 3.707031 1.03125 3.03125 C 0.875 2.832031 0.796875 2.613281 0.796875 2.375 C 0.796875 2.09375 0.894531 1.847656 1.09375 1.640625 C 1.300781 1.441406 1.546875 1.34375 1.828125 1.34375 C 1.960938 1.34375 2.109375 1.378906 2.265625 1.453125 C 2.429688 1.535156 2.554688 1.632812 2.640625 1.75 C 2.972656 2.164062 3.398438 2.5 3.921875 2.75 C 4.453125 3.007812 4.988281 3.140625 5.53125 3.140625 C 6.53125 3.140625 7.394531 2.78125 8.125 2.0625 C 8.851562 1.351562 9.21875 0.507812 9.21875 -0.46875 L 9.21875 -1.46875 C 8.507812 -0.363281 7.441406 0.1875 6.015625 0.1875 C 5.035156 0.1875 4.140625 -0.0859375 3.328125 -0.640625 C 2.523438 -1.203125 1.894531 -1.921875 1.4375 -2.796875 C 0.988281 -3.679688 0.765625 -4.617188 0.765625 -5.609375 C 0.765625 -6.585938 0.988281 -7.503906 1.4375 -8.359375 C 1.882812 -9.222656 2.515625 -9.914062 3.328125 -10.4375 C 4.140625 -10.96875 5.035156 -11.234375 6.015625 -11.234375 C 6.671875 -11.234375 7.28125 -11.078125 7.84375 -10.765625 C 8.414062 -10.460938 8.894531 -10.007812 9.28125 -9.40625 L 9.4375 -10.234375 C 9.5625 -10.921875 9.851562 -11.265625 10.3125 -11.265625 Z M 9.203125 -5.59375 C 9.203125 -6.550781 8.894531 -7.390625 8.28125 -8.109375 C 7.675781 -8.828125 6.929688 -9.1875 6.046875 -9.1875 C 5.128906 -9.1875 4.363281 -8.828125 3.75 -8.109375 C 3.132812 -7.390625 2.828125 -6.554688 2.828125 -5.609375 C 2.828125 -4.640625 3.132812 -3.769531 3.75 -3 C 4.363281 -2.238281 5.117188 -1.859375 6.015625 -1.859375 C 6.597656 -1.859375 7.132812 -2.039062 7.625 -2.40625 C 8.125 -2.769531 8.507812 -3.238281 8.78125 -3.8125 C 9.0625 -4.382812 9.203125 -4.976562 9.203125 -5.59375 Z M 9.203125 -5.59375 "/>
            </g>
        </g>
        <g transform="translate(138.435911, 301.566249)">
            <g>
                <path d="M 7.828125 -9.9375 C 7.828125 -9.394531 7.5625 -9.09375 7.03125 -9.03125 C 6.90625 -9.007812 6.65625 -9.070312 6.28125 -9.21875 C 5.90625 -9.363281 5.617188 -9.4375 5.421875 -9.4375 C 4.578125 -9.4375 3.96875 -9.128906 3.59375 -8.515625 C 3.21875 -7.898438 3.03125 -7.070312 3.03125 -6.03125 L 3.03125 -0.734375 C 3.03125 -0.429688 2.9375 -0.191406 2.75 -0.015625 C 2.5625 0.160156 2.3125 0.25 2 0.25 C 1.6875 0.25 1.4375 0.160156 1.25 -0.015625 C 1.0625 -0.191406 0.96875 -0.4375 0.96875 -0.75 L 0.96875 -10.1875 C 0.96875 -10.507812 1.046875 -10.765625 1.203125 -10.953125 C 1.367188 -11.148438 1.578125 -11.25 1.828125 -11.25 C 2.023438 -11.25 2.21875 -11.175781 2.40625 -11.03125 C 2.601562 -10.882812 2.738281 -10.660156 2.8125 -10.359375 L 2.921875 -9.625 C 3.078125 -9.96875 3.398438 -10.320312 3.890625 -10.6875 C 4.390625 -11.050781 4.898438 -11.234375 5.421875 -11.234375 C 6.210938 -11.234375 6.8125 -11.140625 7.21875 -10.953125 C 7.625 -10.773438 7.828125 -10.4375 7.828125 -9.9375 Z M 7.828125 -9.9375 "/>
            </g>
        </g>
        <g transform="translate(146.515989, 301.566249)">
            <g>
                <path d="M 5.96875 -11.203125 C 6.863281 -11.203125 7.695312 -10.976562 8.46875 -10.53125 C 9.238281 -10.082031 9.851562 -9.46875 10.3125 -8.6875 C 10.769531 -7.914062 11 -7.070312 11 -6.15625 C 11 -5.957031 10.988281 -5.765625 10.96875 -5.578125 C 10.9375 -5.328125 10.816406 -5.113281 10.609375 -4.9375 C 10.410156 -4.757812 10.1875 -4.671875 9.9375 -4.671875 L 2.765625 -4.671875 C 2.953125 -3.890625 3.359375 -3.21875 3.984375 -2.65625 C 4.609375 -2.101562 5.316406 -1.828125 6.109375 -1.828125 C 6.660156 -1.828125 7.171875 -1.960938 7.640625 -2.234375 C 8.117188 -2.503906 8.5 -2.847656 8.78125 -3.265625 C 8.863281 -3.390625 8.984375 -3.492188 9.140625 -3.578125 C 9.304688 -3.671875 9.46875 -3.71875 9.625 -3.71875 C 9.90625 -3.71875 10.144531 -3.613281 10.34375 -3.40625 C 10.550781 -3.207031 10.65625 -2.96875 10.65625 -2.6875 C 10.65625 -2.46875 10.59375 -2.273438 10.46875 -2.109375 C 10.007812 -1.429688 9.40625 -0.878906 8.65625 -0.453125 C 7.90625 -0.0234375 7.066406 0.1875 6.140625 0.1875 C 5.117188 0.1875 4.179688 -0.0703125 3.328125 -0.59375 C 2.472656 -1.125 1.804688 -1.832031 1.328125 -2.71875 C 0.847656 -3.601562 0.609375 -4.550781 0.609375 -5.5625 C 0.609375 -6.550781 0.84375 -7.472656 1.3125 -8.328125 C 1.789062 -9.191406 2.441406 -9.882812 3.265625 -10.40625 C 4.097656 -10.9375 5 -11.203125 5.96875 -11.203125 Z M 8.875 -6.734375 C 8.738281 -7.410156 8.398438 -7.976562 7.859375 -8.4375 C 7.316406 -8.90625 6.6875 -9.140625 5.96875 -9.140625 C 5.25 -9.140625 4.597656 -8.90625 4.015625 -8.4375 C 3.429688 -7.96875 3.039062 -7.394531 2.84375 -6.71875 Z M 8.875 -6.734375 "/>
            </g>
        </g>
        <g transform="translate(158.113156, 301.566249)">
            <g>
                <path d="M 6.390625 -11.28125 C 7.109375 -11.28125 7.816406 -11.070312 8.515625 -10.65625 C 9.210938 -10.25 9.710938 -9.789062 10.015625 -9.28125 L 10.125 -10.265625 C 10.125 -10.546875 10.207031 -10.785156 10.375 -10.984375 C 10.539062 -11.191406 10.757812 -11.296875 11.03125 -11.296875 C 11.3125 -11.296875 11.550781 -11.191406 11.75 -10.984375 C 11.957031 -10.785156 12.0625 -10.546875 12.0625 -10.265625 L 12.0625 -10.25 L 12.03125 -0.75 C 12.03125 -0.46875 11.929688 -0.222656 11.734375 -0.015625 C 11.535156 0.179688 11.296875 0.28125 11.015625 0.28125 C 10.742188 0.28125 10.519531 0.179688 10.34375 -0.015625 C 10.175781 -0.210938 10.09375 -0.457031 10.09375 -0.75 L 9.984375 -1.5625 C 9.640625 -0.988281 9.132812 -0.546875 8.46875 -0.234375 C 7.800781 0.078125 7.101562 0.234375 6.375 0.234375 C 5.351562 0.234375 4.410156 -0.0234375 3.546875 -0.546875 C 2.691406 -1.078125 2.015625 -1.78125 1.515625 -2.65625 C 1.015625 -3.539062 0.765625 -4.488281 0.765625 -5.5 C 0.765625 -6.5 1.003906 -7.441406 1.484375 -8.328125 C 1.972656 -9.210938 2.65625 -9.925781 3.53125 -10.46875 C 4.40625 -11.007812 5.359375 -11.28125 6.390625 -11.28125 Z M 9.921875 -5.515625 C 9.921875 -6.523438 9.578125 -7.394531 8.890625 -8.125 C 8.210938 -8.863281 7.375 -9.234375 6.375 -9.234375 C 5.375 -9.234375 4.523438 -8.863281 3.828125 -8.125 C 3.140625 -7.394531 2.796875 -6.53125 2.796875 -5.53125 C 2.796875 -4.519531 3.144531 -3.644531 3.84375 -2.90625 C 4.550781 -2.175781 5.394531 -1.8125 6.375 -1.8125 C 7.351562 -1.8125 8.1875 -2.175781 8.875 -2.90625 C 9.570312 -3.644531 9.921875 -4.515625 9.921875 -5.515625 Z M 9.921875 -5.515625 "/>
            </g>
        </g>
        <g transform="translate(171.19714, 301.566249)">
            <g>
                <path d="M 2.5625 -13.0625 C 2.5625 -13.34375 2.660156 -13.582031 2.859375 -13.78125 C 3.054688 -13.988281 3.300781 -14.09375 3.59375 -14.09375 C 3.875 -14.09375 4.113281 -13.988281 4.3125 -13.78125 C 4.507812 -13.582031 4.609375 -13.34375 4.609375 -13.0625 L 4.609375 -11.015625 L 5.984375 -11.015625 C 6.253906 -11.015625 6.484375 -10.921875 6.671875 -10.734375 C 6.867188 -10.546875 6.96875 -10.316406 6.96875 -10.046875 C 6.96875 -9.785156 6.867188 -9.554688 6.671875 -9.359375 C 6.484375 -9.171875 6.253906 -9.078125 5.984375 -9.078125 L 4.609375 -9.078125 L 4.59375 -2.734375 L 4.59375 -2.703125 C 4.59375 -2.359375 4.628906 -2.125 4.703125 -2 C 4.773438 -1.882812 4.929688 -1.828125 5.171875 -1.828125 C 5.460938 -1.828125 5.722656 -1.90625 5.953125 -2.0625 C 6.160156 -2.207031 6.367188 -2.28125 6.578125 -2.28125 C 6.859375 -2.28125 7.097656 -2.179688 7.296875 -1.984375 C 7.503906 -1.785156 7.609375 -1.546875 7.609375 -1.265625 C 7.609375 -0.929688 7.472656 -0.660156 7.203125 -0.453125 C 6.597656 0.00390625 5.941406 0.234375 5.234375 0.234375 C 4.390625 0.234375 3.726562 -0.0195312 3.25 -0.53125 C 2.78125 -1.050781 2.546875 -1.722656 2.546875 -2.546875 L 2.546875 -9.0625 L 1.234375 -9.0625 C 0.960938 -9.0625 0.726562 -9.15625 0.53125 -9.34375 C 0.34375 -9.539062 0.25 -9.769531 0.25 -10.03125 C 0.25 -10.300781 0.34375 -10.53125 0.53125 -10.71875 C 0.726562 -10.914062 0.960938 -11.015625 1.234375 -11.015625 L 2.5625 -11.015625 Z M 2.5625 -13.0625 "/>
            </g>
        </g>
        <g transform="translate(179.051631, 301.566249)">
            <g/>
        </g>
        <g transform="translate(184.793818, 301.566249)">
            <g>
                <path d="M 0.609375 -5.53125 C 0.609375 -6.53125 0.835938 -7.46875 1.296875 -8.34375 C 1.765625 -9.21875 2.410156 -9.914062 3.234375 -10.4375 C 4.054688 -10.96875 4.960938 -11.234375 5.953125 -11.234375 C 7.023438 -11.234375 7.972656 -10.929688 8.796875 -10.328125 C 9.617188 -9.734375 10.207031 -8.988281 10.5625 -8.09375 C 10.613281 -7.976562 10.640625 -7.851562 10.640625 -7.71875 C 10.640625 -7.4375 10.535156 -7.191406 10.328125 -6.984375 C 10.128906 -6.785156 9.890625 -6.6875 9.609375 -6.6875 C 9.421875 -6.6875 9.234375 -6.75 9.046875 -6.875 C 8.859375 -7.007812 8.726562 -7.171875 8.65625 -7.359375 C 8.445312 -7.867188 8.097656 -8.300781 7.609375 -8.65625 C 7.128906 -9.007812 6.578125 -9.1875 5.953125 -9.1875 C 5.023438 -9.1875 4.242188 -8.820312 3.609375 -8.09375 C 2.984375 -7.363281 2.671875 -6.507812 2.671875 -5.53125 C 2.671875 -4.53125 2.992188 -3.65625 3.640625 -2.90625 C 4.296875 -2.15625 5.097656 -1.78125 6.046875 -1.78125 C 6.640625 -1.78125 7.171875 -1.929688 7.640625 -2.234375 C 8.109375 -2.535156 8.46875 -2.914062 8.71875 -3.375 C 8.800781 -3.519531 8.929688 -3.644531 9.109375 -3.75 C 9.285156 -3.863281 9.457031 -3.921875 9.625 -3.921875 C 9.90625 -3.921875 10.144531 -3.816406 10.34375 -3.609375 C 10.550781 -3.410156 10.65625 -3.171875 10.65625 -2.890625 C 10.65625 -2.722656 10.609375 -2.554688 10.515625 -2.390625 C 10.097656 -1.617188 9.492188 -0.984375 8.703125 -0.484375 C 7.921875 0.015625 7.035156 0.265625 6.046875 0.265625 C 5.035156 0.265625 4.109375 0 3.265625 -0.53125 C 2.429688 -1.070312 1.78125 -1.785156 1.3125 -2.671875 C 0.84375 -3.554688 0.609375 -4.507812 0.609375 -5.53125 Z M 0.609375 -5.53125 "/>
            </g>
        </g>
        <g transform="translate(196.052607, 301.566249)">
            <g>
                <path d="M 0.96875 -13.96875 C 0.96875 -14.238281 1.066406 -14.46875 1.265625 -14.65625 C 1.460938 -14.851562 1.707031 -14.953125 2 -14.953125 C 2.28125 -14.953125 2.519531 -14.851562 2.71875 -14.65625 C 2.925781 -14.46875 3.03125 -14.238281 3.03125 -13.96875 L 3.03125 -9.5 C 3.28125 -10.03125 3.648438 -10.445312 4.140625 -10.75 C 4.628906 -11.0625 5.117188 -11.21875 5.609375 -11.21875 C 7.160156 -11.21875 8.316406 -10.753906 9.078125 -9.828125 C 9.835938 -8.898438 10.21875 -7.640625 10.21875 -6.046875 L 10.21875 -0.765625 C 10.21875 -0.484375 10.113281 -0.242188 9.90625 -0.046875 C 9.707031 0.140625 9.46875 0.234375 9.1875 0.234375 C 8.90625 0.234375 8.660156 0.140625 8.453125 -0.046875 C 8.253906 -0.242188 8.15625 -0.484375 8.15625 -0.765625 L 8.171875 -5.890625 L 8.171875 -5.921875 C 8.171875 -7.035156 7.984375 -7.851562 7.609375 -8.375 C 7.242188 -8.894531 6.578125 -9.15625 5.609375 -9.15625 C 4.773438 -9.15625 4.140625 -8.863281 3.703125 -8.28125 C 3.265625 -7.695312 3.046875 -6.925781 3.046875 -5.96875 L 3.046875 -0.75 C 3.046875 -0.476562 2.941406 -0.242188 2.734375 -0.046875 C 2.535156 0.148438 2.296875 0.25 2.015625 0.25 C 1.722656 0.25 1.472656 0.148438 1.265625 -0.046875 C 1.066406 -0.242188 0.96875 -0.476562 0.96875 -0.75 Z M 0.96875 -13.96875 "/>
            </g>
        </g>
        <g transform="translate(207.249872, 301.566249)">
            <g>
                <path d="M 6.390625 -11.28125 C 7.109375 -11.28125 7.816406 -11.070312 8.515625 -10.65625 C 9.210938 -10.25 9.710938 -9.789062 10.015625 -9.28125 L 10.125 -10.265625 C 10.125 -10.546875 10.207031 -10.785156 10.375 -10.984375 C 10.539062 -11.191406 10.757812 -11.296875 11.03125 -11.296875 C 11.3125 -11.296875 11.550781 -11.191406 11.75 -10.984375 C 11.957031 -10.785156 12.0625 -10.546875 12.0625 -10.265625 L 12.0625 -10.25 L 12.03125 -0.75 C 12.03125 -0.46875 11.929688 -0.222656 11.734375 -0.015625 C 11.535156 0.179688 11.296875 0.28125 11.015625 0.28125 C 10.742188 0.28125 10.519531 0.179688 10.34375 -0.015625 C 10.175781 -0.210938 10.09375 -0.457031 10.09375 -0.75 L 9.984375 -1.5625 C 9.640625 -0.988281 9.132812 -0.546875 8.46875 -0.234375 C 7.800781 0.078125 7.101562 0.234375 6.375 0.234375 C 5.351562 0.234375 4.410156 -0.0234375 3.546875 -0.546875 C 2.691406 -1.078125 2.015625 -1.78125 1.515625 -2.65625 C 1.015625 -3.539062 0.765625 -4.488281 0.765625 -5.5 C 0.765625 -6.5 1.003906 -7.441406 1.484375 -8.328125 C 1.972656 -9.210938 2.65625 -9.925781 3.53125 -10.46875 C 4.40625 -11.007812 5.359375 -11.28125 6.390625 -11.28125 Z M 9.921875 -5.515625 C 9.921875 -6.523438 9.578125 -7.394531 8.890625 -8.125 C 8.210938 -8.863281 7.375 -9.234375 6.375 -9.234375 C 5.375 -9.234375 4.523438 -8.863281 3.828125 -8.125 C 3.140625 -7.394531 2.796875 -6.53125 2.796875 -5.53125 C 2.796875 -4.519531 3.144531 -3.644531 3.84375 -2.90625 C 4.550781 -2.175781 5.394531 -1.8125 6.375 -1.8125 C 7.351562 -1.8125 8.1875 -2.175781 8.875 -2.90625 C 9.570312 -3.644531 9.921875 -4.515625 9.921875 -5.515625 Z M 9.921875 -5.515625 "/>
            </g>
        </g>
        <g transform="translate(220.333855, 301.566249)">
            <g>
                <path d="M 2.5625 -13.0625 C 2.5625 -13.34375 2.660156 -13.582031 2.859375 -13.78125 C 3.054688 -13.988281 3.300781 -14.09375 3.59375 -14.09375 C 3.875 -14.09375 4.113281 -13.988281 4.3125 -13.78125 C 4.507812 -13.582031 4.609375 -13.34375 4.609375 -13.0625 L 4.609375 -11.015625 L 5.984375 -11.015625 C 6.253906 -11.015625 6.484375 -10.921875 6.671875 -10.734375 C 6.867188 -10.546875 6.96875 -10.316406 6.96875 -10.046875 C 6.96875 -9.785156 6.867188 -9.554688 6.671875 -9.359375 C 6.484375 -9.171875 6.253906 -9.078125 5.984375 -9.078125 L 4.609375 -9.078125 L 4.59375 -2.734375 L 4.59375 -2.703125 C 4.59375 -2.359375 4.628906 -2.125 4.703125 -2 C 4.773438 -1.882812 4.929688 -1.828125 5.171875 -1.828125 C 5.460938 -1.828125 5.722656 -1.90625 5.953125 -2.0625 C 6.160156 -2.207031 6.367188 -2.28125 6.578125 -2.28125 C 6.859375 -2.28125 7.097656 -2.179688 7.296875 -1.984375 C 7.503906 -1.785156 7.609375 -1.546875 7.609375 -1.265625 C 7.609375 -0.929688 7.472656 -0.660156 7.203125 -0.453125 C 6.597656 0.00390625 5.941406 0.234375 5.234375 0.234375 C 4.390625 0.234375 3.726562 -0.0195312 3.25 -0.53125 C 2.78125 -1.050781 2.546875 -1.722656 2.546875 -2.546875 L 2.546875 -9.0625 L 1.234375 -9.0625 C 0.960938 -9.0625 0.726562 -9.15625 0.53125 -9.34375 C 0.34375 -9.539062 0.25 -9.769531 0.25 -10.03125 C 0.25 -10.300781 0.34375 -10.53125 0.53125 -10.71875 C 0.726562 -10.914062 0.960938 -11.015625 1.234375 -11.015625 L 2.5625 -11.015625 Z M 2.5625 -13.0625 "/>
            </g>
        </g>
        <g transform="translate(228.188347, 301.566249)">
            <g/>
        </g>
        <g transform="translate(233.930534, 301.566249)">
            <g>
                <path d="M 0.359375 -10.0625 C 0.359375 -10.28125 0.4375 -10.476562 0.59375 -10.65625 C 0.757812 -10.84375 0.957031 -10.9375 1.1875 -10.9375 L 2.703125 -10.9375 L 2.703125 -11.078125 C 2.722656 -12.273438 2.988281 -13.191406 3.5 -13.828125 C 4.019531 -14.460938 4.828125 -14.769531 5.921875 -14.75 L 7.046875 -14.71875 C 7.316406 -14.71875 7.550781 -14.617188 7.75 -14.421875 C 7.957031 -14.222656 8.0625 -13.984375 8.0625 -13.703125 C 8.0625 -13.421875 7.960938 -13.179688 7.765625 -12.984375 C 7.566406 -12.796875 7.320312 -12.703125 7.03125 -12.703125 L 5.890625 -12.875 C 5.367188 -12.875 5.046875 -12.757812 4.921875 -12.53125 C 4.796875 -12.300781 4.738281 -11.796875 4.75 -11.015625 L 4.765625 -10.921875 L 6.828125 -10.90625 C 7.097656 -10.90625 7.328125 -10.8125 7.515625 -10.625 C 7.703125 -10.445312 7.796875 -10.226562 7.796875 -9.96875 C 7.796875 -9.738281 7.707031 -9.523438 7.53125 -9.328125 C 7.351562 -9.128906 7.15625 -9.03125 6.9375 -9.03125 L 4.765625 -9.015625 L 4.78125 -0.75 L 4.78125 -0.734375 C 4.78125 -0.460938 4.675781 -0.234375 4.46875 -0.046875 C 4.269531 0.140625 4.03125 0.234375 3.75 0.234375 C 3.46875 0.234375 3.226562 0.140625 3.03125 -0.046875 C 2.832031 -0.234375 2.734375 -0.460938 2.734375 -0.734375 L 2.734375 -0.75 L 2.703125 -9.03125 L 1.328125 -9.046875 C 1.046875 -9.046875 0.8125 -9.140625 0.625 -9.328125 C 0.445312 -9.523438 0.359375 -9.769531 0.359375 -10.0625 Z M 0.359375 -10.0625 "/>
            </g>
        </g>
        <g transform="translate(242.246451, 301.566249)">
            <g>
                <path d="M 6.125 -11.234375 C 6.894531 -11.234375 7.628906 -11.078125 8.328125 -10.765625 C 9.023438 -10.460938 9.625 -10.050781 10.125 -9.53125 C 10.625 -9.007812 11.019531 -8.394531 11.3125 -7.6875 C 11.613281 -6.988281 11.765625 -6.253906 11.765625 -5.484375 C 11.765625 -4.472656 11.507812 -3.53125 11 -2.65625 C 10.5 -1.789062 9.816406 -1.097656 8.953125 -0.578125 C 8.085938 -0.0664062 7.144531 0.1875 6.125 0.1875 C 5.113281 0.1875 4.175781 -0.0625 3.3125 -0.5625 C 2.457031 -1.070312 1.773438 -1.765625 1.265625 -2.640625 C 0.765625 -3.515625 0.515625 -4.460938 0.515625 -5.484375 C 0.515625 -6.503906 0.765625 -7.453125 1.265625 -8.328125 C 1.765625 -9.210938 2.445312 -9.914062 3.3125 -10.4375 C 4.175781 -10.96875 5.113281 -11.234375 6.125 -11.234375 Z M 2.578125 -5.46875 C 2.578125 -4.476562 2.925781 -3.628906 3.625 -2.921875 C 4.332031 -2.222656 5.171875 -1.875 6.140625 -1.875 C 7.117188 -1.875 7.953125 -2.226562 8.640625 -2.9375 C 9.335938 -3.65625 9.6875 -4.503906 9.6875 -5.484375 C 9.6875 -6.492188 9.34375 -7.359375 8.65625 -8.078125 C 7.96875 -8.796875 7.125 -9.15625 6.125 -9.15625 C 5.125 -9.15625 4.28125 -8.789062 3.59375 -8.0625 C 2.914062 -7.34375 2.578125 -6.476562 2.578125 -5.46875 Z M 2.578125 -5.46875 "/>
            </g>
        </g>
        <g transform="translate(254.510123, 301.566249)">
            <g>
                <path d="M 7.828125 -9.9375 C 7.828125 -9.394531 7.5625 -9.09375 7.03125 -9.03125 C 6.90625 -9.007812 6.65625 -9.070312 6.28125 -9.21875 C 5.90625 -9.363281 5.617188 -9.4375 5.421875 -9.4375 C 4.578125 -9.4375 3.96875 -9.128906 3.59375 -8.515625 C 3.21875 -7.898438 3.03125 -7.070312 3.03125 -6.03125 L 3.03125 -0.734375 C 3.03125 -0.429688 2.9375 -0.191406 2.75 -0.015625 C 2.5625 0.160156 2.3125 0.25 2 0.25 C 1.6875 0.25 1.4375 0.160156 1.25 -0.015625 C 1.0625 -0.191406 0.96875 -0.4375 0.96875 -0.75 L 0.96875 -10.1875 C 0.96875 -10.507812 1.046875 -10.765625 1.203125 -10.953125 C 1.367188 -11.148438 1.578125 -11.25 1.828125 -11.25 C 2.023438 -11.25 2.21875 -11.175781 2.40625 -11.03125 C 2.601562 -10.882812 2.738281 -10.660156 2.8125 -10.359375 L 2.921875 -9.625 C 3.078125 -9.96875 3.398438 -10.320312 3.890625 -10.6875 C 4.390625 -11.050781 4.898438 -11.234375 5.421875 -11.234375 C 6.210938 -11.234375 6.8125 -11.140625 7.21875 -10.953125 C 7.625 -10.773438 7.828125 -10.4375 7.828125 -9.9375 Z M 7.828125 -9.9375 "/>
            </g>
        </g>
        <g transform="translate(262.5902, 301.566249)">
            <g/>
        </g>
        <g transform="translate(268.332387, 301.566249)">
            <g>
                <path d="M 1.28125 -11.296875 C 1.476562 -11.296875 1.664062 -11.234375 1.84375 -11.109375 C 2.019531 -10.992188 2.144531 -10.851562 2.21875 -10.6875 L 5.703125 -2.765625 L 8.6875 -10.609375 C 8.757812 -10.796875 8.882812 -10.953125 9.0625 -11.078125 C 9.238281 -11.203125 9.429688 -11.265625 9.640625 -11.265625 C 9.921875 -11.265625 10.160156 -11.160156 10.359375 -10.953125 C 10.566406 -10.753906 10.671875 -10.515625 10.671875 -10.234375 C 10.671875 -10.085938 10.640625 -9.953125 10.578125 -9.828125 L 6.8125 0.015625 C 6.789062 0.128906 6.734375 0.269531 6.640625 0.4375 L 6.0625 1.859375 C 5.9375 2.179688 5.828125 2.441406 5.734375 2.640625 C 5.640625 2.835938 5.503906 3.078125 5.328125 3.359375 C 5.148438 3.648438 4.953125 3.90625 4.734375 4.125 C 4.378906 4.5 3.957031 4.800781 3.46875 5.03125 C 2.988281 5.257812 2.492188 5.375 1.984375 5.375 C 1.703125 5.375 1.460938 5.269531 1.265625 5.0625 C 1.066406 4.863281 0.96875 4.617188 0.96875 4.328125 C 0.96875 4.054688 1.0625 3.816406 1.25 3.609375 C 1.4375 3.410156 1.660156 3.304688 1.921875 3.296875 C 2.472656 3.265625 2.914062 3.054688 3.25 2.671875 C 3.582031 2.296875 3.882812 1.769531 4.15625 1.09375 L 4.65625 -0.171875 L 0.34375 -9.828125 C 0.28125 -9.960938 0.25 -10.109375 0.25 -10.265625 C 0.25 -10.546875 0.347656 -10.785156 0.546875 -10.984375 C 0.753906 -11.191406 1 -11.296875 1.28125 -11.296875 Z M 1.28125 -11.296875 "/>
            </g>
        </g>
        <g transform="translate(279.252797, 301.566249)">
            <g>
                <path d="M 6.125 -11.234375 C 6.894531 -11.234375 7.628906 -11.078125 8.328125 -10.765625 C 9.023438 -10.460938 9.625 -10.050781 10.125 -9.53125 C 10.625 -9.007812 11.019531 -8.394531 11.3125 -7.6875 C 11.613281 -6.988281 11.765625 -6.253906 11.765625 -5.484375 C 11.765625 -4.472656 11.507812 -3.53125 11 -2.65625 C 10.5 -1.789062 9.816406 -1.097656 8.953125 -0.578125 C 8.085938 -0.0664062 7.144531 0.1875 6.125 0.1875 C 5.113281 0.1875 4.175781 -0.0625 3.3125 -0.5625 C 2.457031 -1.070312 1.773438 -1.765625 1.265625 -2.640625 C 0.765625 -3.515625 0.515625 -4.460938 0.515625 -5.484375 C 0.515625 -6.503906 0.765625 -7.453125 1.265625 -8.328125 C 1.765625 -9.210938 2.445312 -9.914062 3.3125 -10.4375 C 4.175781 -10.96875 5.113281 -11.234375 6.125 -11.234375 Z M 2.578125 -5.46875 C 2.578125 -4.476562 2.925781 -3.628906 3.625 -2.921875 C 4.332031 -2.222656 5.171875 -1.875 6.140625 -1.875 C 7.117188 -1.875 7.953125 -2.226562 8.640625 -2.9375 C 9.335938 -3.65625 9.6875 -4.503906 9.6875 -5.484375 C 9.6875 -6.492188 9.34375 -7.359375 8.65625 -8.078125 C 7.96875 -8.796875 7.125 -9.15625 6.125 -9.15625 C 5.125 -9.15625 4.28125 -8.789062 3.59375 -8.0625 C 2.914062 -7.34375 2.578125 -6.476562 2.578125 -5.46875 Z M 2.578125 -5.46875 "/>
            </g>
        </g>
        <g transform="translate(291.516468, 301.566249)">
            <g>
                <path d="M 8.109375 -1.390625 C 7.796875 -1.085938 7.515625 -0.832031 7.265625 -0.625 C 7.015625 -0.425781 6.675781 -0.234375 6.25 -0.046875 C 5.832031 0.128906 5.410156 0.21875 4.984375 0.21875 C 4.148438 0.21875 3.425781 0 2.8125 -0.4375 C 2.207031 -0.882812 1.75 -1.457031 1.4375 -2.15625 C 1.132812 -2.851562 0.984375 -3.804688 0.984375 -5.015625 L 0.984375 -10.1875 C 0.984375 -10.46875 1.082031 -10.707031 1.28125 -10.90625 C 1.476562 -11.113281 1.71875 -11.21875 2 -11.21875 C 2.28125 -11.21875 2.519531 -11.113281 2.71875 -10.90625 C 2.925781 -10.707031 3.03125 -10.46875 3.03125 -10.1875 L 3.03125 -5.015625 C 3.03125 -4.085938 3.125 -3.410156 3.3125 -2.984375 C 3.46875 -2.648438 3.6875 -2.375 3.96875 -2.15625 C 4.25 -1.9375 4.582031 -1.828125 4.96875 -1.828125 C 5.96875 -1.828125 6.738281 -2.207031 7.28125 -2.96875 C 7.832031 -3.738281 8.109375 -4.789062 8.109375 -6.125 L 8.09375 -10.203125 C 8.09375 -10.484375 8.191406 -10.722656 8.390625 -10.921875 C 8.597656 -11.128906 8.84375 -11.234375 9.125 -11.234375 C 9.40625 -11.234375 9.644531 -11.128906 9.84375 -10.921875 C 10.039062 -10.722656 10.140625 -10.484375 10.140625 -10.203125 L 10.171875 -0.78125 C 10.171875 -0.476562 10.085938 -0.226562 9.921875 -0.03125 C 9.765625 0.15625 9.550781 0.25 9.28125 0.25 C 8.8125 0.25 8.484375 -0.09375 8.296875 -0.78125 Z M 8.109375 -1.390625 "/>
            </g>
        </g>
    </g>
</svg>